<?xml version="1.0" encoding="UTF-8"?>
<!DOCTYPE svg PUBLIC "-//W3C//DTD SVG 1.1//EN"
    "http://www.w3.org/Graphics/SVG/1.1/DTD/svg11.dtd"><svg stroke="rgb(0,0,0)" xmlns="http://www.w3.org/2000/svg" font-size="1" width="800.0000" stroke-opacity="1" xmlns:xlink="http://www.w3.org/1999/xlink" viewBox="0.0 0.0 800.0 600.0" height="600.0000" version="1.1"><defs></defs><g fill="rgb(255,255,255)" stroke="rgb(0,0,0)" stroke-linecap="butt" stroke-width="0.0" stroke-miterlimit="10.0" fill-opacity="1.0" stroke-opacity="0.0" stroke-linejoin="bevel"><path d="M 0.0000,0.0000 v 600.0000 h 800.0000 v -600.0000 Z"/></g><g fill="rgb(0,0,0)" stroke="rgb(0,0,0)" stroke-linecap="butt" stroke-width="0.0" stroke-miterlimit="10.0" fill-opacity="1.0" stroke-opacity="0.0" stroke-linejoin="bevel"><path d="M 335.9343,14.1016 ZM 336.6427,9.1427 c 0.0000,-1.2474 0.3850,-2.2254 0.3850 -2.2254c 0.3850,-0.9779 1.0395,-1.6555 1.0395 -1.6555c 0.6545,-0.6776 1.5246,-1.0318 1.5246 -1.0318c 0.8701,-0.3542 1.8403,-0.3542 1.8403 -0.3542c 0.9394,0.0000 1.7017,0.3927 1.7017 0.3927c 0.7623,0.3927 1.2705,0.9163 1.2705 0.9163l -1.2474,1.4014 c -0.3850,-0.3542 -0.7777,-0.5544 -0.7777 -0.5544c -0.3927,-0.2002 -0.9163,-0.2002 -0.9163 -0.2002c -0.5236,-0.0000 -0.9779,0.2233 -0.9779 0.2233c -0.4543,0.2233 -0.7931,0.6391 -0.7931 0.6391c -0.3388,0.4158 -0.5313,1.0164 -0.5313 1.0164c -0.1925,0.6006 -0.1925,1.3552 -0.1925 1.3552c 0.0000,1.5554 0.6622,2.4102 0.6622 2.4102c 0.6622,0.8547 1.7710,0.8547 1.7710 0.8547c 0.6160,0.0000 1.0780,-0.2464 1.0780 -0.2464c 0.4620,-0.2464 0.8316,-0.6468 0.8316 -0.6468l 1.2474,1.3706 c -0.6314,0.7392 -1.4399,1.1088 -1.4399 1.1088c -0.8085,0.3696 -1.7479,0.3696 -1.7479 0.3696c -0.9702,-0.0000 -1.8326,-0.3311 -1.8326 -0.3311c -0.8624,-0.3311 -1.5092,-0.9779 -1.5092 -0.9779c -0.6468,-0.6468 -1.0164,-1.6093 -1.0164 -1.6093c -0.3696,-0.9625 -0.3696,-2.2254 -0.3696 -2.2254ZM 344.8973,14.1016 ZM 347.0226,5.3388 c -0.5698,-0.0000 -0.9394,-0.3311 -0.9394 -0.3311c -0.3696,-0.3311 -0.3696,-0.8547 -0.3696 -0.8547c 0.0000,-0.5236 0.3696,-0.8470 0.3696 -0.8470c 0.3696,-0.3234 0.9394,-0.3234 0.9394 -0.3234c 0.5852,0.0000 0.9471,0.3234 0.9471 0.3234c 0.3619,0.3234 0.3619,0.8470 0.3619 0.8470c 0.0000,0.5236 -0.3619,0.8547 -0.3619 0.8547c -0.3619,0.3311 -0.9471,0.3311 -0.9471 0.3311ZM 347.0226,5.3388 ZM 345.8984,6.4630 h 2.2639 v 7.6386 h -2.2639 v -7.6386 ZM 349.1478,14.1016 ZM 350.1489,6.4630 h 1.8480 l 0.1540,1.3398 h 0.0616 c 0.4158,-0.7854 1.0010,-1.1550 1.0010 -1.1550c 0.5852,-0.3696 1.1704,-0.3696 1.1704 -0.3696c 0.3234,0.0000 0.5313,0.0385 0.5313 0.0385c 0.2079,0.0385 0.3773,0.1155 0.3773 0.1155l -0.3696,1.9559 c -0.2156,-0.0616 -0.4004,-0.0924 -0.4004 -0.0924c -0.1848,-0.0308 -0.4312,-0.0308 -0.4312 -0.0308c -0.4312,-0.0000 -0.9009,0.3080 -0.9009 0.3080c -0.4697,0.3080 -0.7777,1.0934 -0.7777 1.0934v 4.4353 h -2.2639 v -7.6386 ZM 355.1232,14.1016 ZM 355.6776,10.2823 c 0.0000,-0.9548 0.3234,-1.7017 0.3234 -1.7017c 0.3234,-0.7469 0.8701,-1.2551 0.8701 -1.2551c 0.5467,-0.5082 1.2705,-0.7777 1.2705 -0.7777c 0.7238,-0.2695 1.5092,-0.2695 1.5092 -0.2695c 0.7084,0.0000 1.2782,0.2387 1.2782 0.2387c 0.5698,0.2387 0.9548,0.6391 0.9548 0.6391l -1.0318,1.4014 c -0.5390,-0.4466 -1.0626,-0.4466 -1.0626 -0.4466c -0.8316,-0.0000 -1.3090,0.5852 -1.3090 0.5852c -0.4774,0.5852 -0.4774,1.5862 -0.4774 1.5862c 0.0000,1.0010 0.4851,1.5862 0.4851 1.5862c 0.4851,0.5852 1.2243,0.5852 1.2243 0.5852c 0.4158,0.0000 0.7546,-0.1694 0.7546 -0.1694c 0.3388,-0.1694 0.6160,-0.3850 0.6160 -0.3850l 0.9086,1.4322 c -0.5544,0.4928 -1.2320,0.7238 -1.2320 0.7238c -0.6776,0.2310 -1.3090,0.2310 -1.3090 0.2310c -0.8008,-0.0000 -1.4861,-0.2695 -1.4861 -0.2695c -0.6853,-0.2695 -1.1935,-0.7777 -1.1935 -0.7777c -0.5082,-0.5082 -0.8008,-1.2551 -0.8008 -1.2551c -0.2926,-0.7469 -0.2926,-1.7017 -0.2926 -1.7017ZM 362.3152,14.1016 ZM 363.2392,6.4630 h 2.2639 v 4.4507 c 0.0000,0.8316 0.2310,1.1396 0.2310 1.1396c 0.2310,0.3080 0.7238,0.3080 0.7238 0.3080c 0.4312,0.0000 0.7238,-0.2002 0.7238 -0.2002c 0.2926,-0.2002 0.6314,-0.6468 0.6314 -0.6468v -5.0513 h 2.2639 v 7.6386 h -1.8480 l -0.1694,-1.0626 h -0.0462 c -0.4928,0.5852 -1.0549,0.9163 -1.0549 0.9163c -0.5621,0.3311 -1.3475,0.3311 -1.3475 0.3311c -1.2474,-0.0000 -1.8095,-0.8162 -1.8095 -0.8162c -0.5621,-0.8162 -0.5621,-2.2639 -0.5621 -2.2639v -4.7433 ZM 371.0626,14.1016 ZM 373.1879,5.3388 c -0.5698,-0.0000 -0.9394,-0.3311 -0.9394 -0.3311c -0.3696,-0.3311 -0.3696,-0.8547 -0.3696 -0.8547c 0.0000,-0.5236 0.3696,-0.8470 0.3696 -0.8470c 0.3696,-0.3234 0.9394,-0.3234 0.9394 -0.3234c 0.5852,0.0000 0.9471,0.3234 0.9471 0.3234c 0.3619,0.3234 0.3619,0.8470 0.3619 0.8470c 0.0000,0.5236 -0.3619,0.8547 -0.3619 0.8547c -0.3619,0.3311 -0.9471,0.3311 -0.9471 0.3311ZM 373.1879,5.3388 ZM 372.0637,6.4630 h 2.2639 v 7.6386 h -2.2639 v -7.6386 ZM 375.3131,14.1016 ZM 376.6222,8.2341 h -1.0472 v -1.6786 l 1.1704,-0.0924 l 0.2618,-2.0329 h 1.8789 v 2.0329 h 1.8326 v 1.7710 h -1.8326 v 3.0647 c 0.0000,0.6468 0.2695,0.9317 0.2695 0.9317c 0.2695,0.2849 0.7161,0.2849 0.7161 0.2849c 0.1848,0.0000 0.3773,-0.0462 0.3773 -0.0462c 0.1925,-0.0462 0.3465,-0.1078 0.3465 -0.1078l 0.3542,1.6478 c -0.3080,0.0924 -0.7238,0.1848 -0.7238 0.1848c -0.4158,0.0924 -0.9702,0.0924 -0.9702 0.0924c -0.7084,-0.0000 -1.2089,-0.2156 -1.2089 -0.2156c -0.5005,-0.2156 -0.8162,-0.6006 -0.8162 -0.6006c -0.3157,-0.3850 -0.4620,-0.9317 -0.4620 -0.9317c -0.1463,-0.5467 -0.1463,-1.2089 -0.1463 -1.2089v -3.0955 ZM 384.4148,14.1016 ZM 385.1232,9.1427 c 0.0000,-1.2474 0.3850,-2.2254 0.3850 -2.2254c 0.3850,-0.9779 1.0395,-1.6555 1.0395 -1.6555c 0.6545,-0.6776 1.5246,-1.0318 1.5246 -1.0318c 0.8701,-0.3542 1.8403,-0.3542 1.8403 -0.3542c 0.9394,0.0000 1.7017,0.3927 1.7017 0.3927c 0.7623,0.3927 1.2705,0.9163 1.2705 0.9163l -1.2474,1.4014 c -0.3850,-0.3542 -0.7777,-0.5544 -0.7777 -0.5544c -0.3927,-0.2002 -0.9163,-0.2002 -0.9163 -0.2002c -0.5236,-0.0000 -0.9779,0.2233 -0.9779 0.2233c -0.4543,0.2233 -0.7931,0.6391 -0.7931 0.6391c -0.3388,0.4158 -0.5313,1.0164 -0.5313 1.0164c -0.1925,0.6006 -0.1925,1.3552 -0.1925 1.3552c 0.0000,1.5554 0.6622,2.4102 0.6622 2.4102c 0.6622,0.8547 1.7710,0.8547 1.7710 0.8547c 0.6160,0.0000 1.0780,-0.2464 1.0780 -0.2464c 0.4620,-0.2464 0.8316,-0.6468 0.8316 -0.6468l 1.2474,1.3706 c -0.6314,0.7392 -1.4399,1.1088 -1.4399 1.1088c -0.8085,0.3696 -1.7479,0.3696 -1.7479 0.3696c -0.9702,-0.0000 -1.8326,-0.3311 -1.8326 -0.3311c -0.8624,-0.3311 -1.5092,-0.9779 -1.5092 -0.9779c -0.6468,-0.6468 -1.0164,-1.6093 -1.0164 -1.6093c -0.3696,-0.9625 -0.3696,-2.2254 -0.3696 -2.2254ZM 393.3778,14.1016 ZM 393.9322,10.2823 c 0.0000,-0.9548 0.3080,-1.7017 0.3080 -1.7017c 0.3080,-0.7469 0.8239,-1.2551 0.8239 -1.2551c 0.5159,-0.5082 1.1935,-0.7777 1.1935 -0.7777c 0.6776,-0.2695 1.4014,-0.2695 1.4014 -0.2695c 0.7238,0.0000 1.3937,0.2695 1.3937 0.2695c 0.6699,0.2695 1.1858,0.7777 1.1858 0.7777c 0.5159,0.5082 0.8239,1.2551 0.8239 1.2551c 0.3080,0.7469 0.3080,1.7017 0.3080 1.7017c 0.0000,0.9548 -0.3080,1.7017 -0.3080 1.7017c -0.3080,0.7469 -0.8239,1.2551 -0.8239 1.2551c -0.5159,0.5082 -1.1858,0.7777 -1.1858 0.7777c -0.6699,0.2695 -1.3937,0.2695 -1.3937 0.2695c -0.7238,-0.0000 -1.4014,-0.2695 -1.4014 -0.2695c -0.6776,-0.2695 -1.1935,-0.7777 -1.1935 -0.7777c -0.5159,-0.5082 -0.8239,-1.2551 -0.8239 -1.2551c -0.3080,-0.7469 -0.3080,-1.7017 -0.3080 -1.7017ZM 393.9322,10.2823 ZM 396.2577,10.2823 c 0.0000,1.0010 0.3465,1.5862 0.3465 1.5862c 0.3465,0.5852 1.0549,0.5852 1.0549 0.5852c 0.6930,0.0000 1.0472,-0.5852 1.0472 -0.5852c 0.3542,-0.5852 0.3542,-1.5862 0.3542 -1.5862c 0.0000,-1.0010 -0.3542,-1.5862 -0.3542 -1.5862c -0.3542,-0.5852 -1.0472,-0.5852 -1.0472 -0.5852c -0.7084,-0.0000 -1.0549,0.5852 -1.0549 0.5852c -0.3465,0.5852 -0.3465,1.5862 -0.3465 1.5862ZM 401.9251,14.1016 ZM 402.4795,10.2823 c 0.0000,-0.9240 0.3080,-1.6709 0.3080 -1.6709c 0.3080,-0.7469 0.8085,-1.2628 0.8085 -1.2628c 0.5005,-0.5159 1.1473,-0.7931 1.1473 -0.7931c 0.6468,-0.2772 1.3398,-0.2772 1.3398 -0.2772c 0.8162,0.0000 1.4245,0.2772 1.4245 0.2772c 0.6083,0.2772 1.0164,0.7700 1.0164 0.7700c 0.4081,0.4928 0.6083,1.1627 0.6083 1.1627c 0.2002,0.6699 0.2002,1.4553 0.2002 1.4553c 0.0000,0.3080 -0.0308,0.5621 -0.0308 0.5621c -0.0308,0.2541 -0.0616,0.3927 -0.0616 0.3927h -4.5739 c 0.1540,0.8778 0.6853,1.2705 0.6853 1.2705c 0.5313,0.3927 1.3013,0.3927 1.3013 0.3927c 0.8162,0.0000 1.6478,-0.5082 1.6478 -0.5082l 0.7546,1.3706 c -0.5852,0.4004 -1.3013,0.6314 -1.3013 0.6314c -0.7161,0.2310 -1.4091,0.2310 -1.4091 0.2310c -0.8162,-0.0000 -1.5246,-0.2695 -1.5246 -0.2695c -0.7084,-0.2695 -1.2320,-0.7854 -1.2320 -0.7854c -0.5236,-0.5159 -0.8162,-1.2551 -0.8162 -1.2551c -0.2926,-0.7392 -0.2926,-1.6940 -0.2926 -1.6940ZM 402.4795,10.2823 ZM 407.4076,9.4969 c 0.0000,-0.6622 -0.2926,-1.0780 -0.2926 -1.0780c -0.2926,-0.4158 -0.9856,-0.4158 -0.9856 -0.4158c -0.5390,-0.0000 -0.9471,0.3619 -0.9471 0.3619c -0.4081,0.3619 -0.5313,1.1319 -0.5313 1.1319h 2.7567 ZM 409.9025,14.1016 ZM 420.0821,5.0616 c -0.4312,-0.1540 -0.7854,-0.1540 -0.7854 -0.1540c -0.4158,-0.0000 -0.6468,0.2541 -0.6468 0.2541c -0.2310,0.2541 -0.2310,0.8393 -0.2310 0.8393v 0.4620 h 1.3706 v 1.7710 h -1.3706 v 5.8676 h -2.2639 v -5.8676 h -2.6027 v 5.8676 h -2.2639 v -5.8676 h -1.0164 v -1.6786 l 1.0164,-0.0770 v -0.3542 c 0.0000,-0.5852 0.1617,-1.1088 0.1617 -1.1088c 0.1617,-0.5236 0.5082,-0.9086 0.5082 -0.9086c 0.3465,-0.3850 0.8932,-0.6083 0.8932 -0.6083c 0.5467,-0.2233 1.3321,-0.2233 1.3321 -0.2233c 0.4928,0.0000 0.9086,0.0847 0.9086 0.0847c 0.4158,0.0847 0.6776,0.1925 0.6776 0.1925l -0.4158,1.6786 c -0.1848,-0.0770 -0.3850,-0.1232 -0.3850 -0.1232c -0.2002,-0.0462 -0.5082,-0.0462 -0.5082 -0.0462c -0.4004,-0.0000 -0.6545,0.2541 -0.6545 0.2541c -0.2541,0.2541 -0.2541,0.7931 -0.2541 0.7931v 0.3542 h 2.6027 v -0.4004 c 0.0000,-0.6006 0.1463,-1.1396 0.1463 -1.1396c 0.1463,-0.5390 0.4851,-0.9394 0.4851 -0.9394c 0.3388,-0.4004 0.8701,-0.6314 0.8701 -0.6314c 0.5313,-0.2310 1.3013,-0.2310 1.3013 -0.2310c 0.4928,0.0000 0.8778,0.0924 0.8778 0.0924c 0.3850,0.0924 0.6468,0.1848 0.6468 0.1848ZM 420.0051,14.1016 ZM 422.1304,5.3388 c -0.5698,-0.0000 -0.9394,-0.3311 -0.9394 -0.3311c -0.3696,-0.3311 -0.3696,-0.8547 -0.3696 -0.8547c 0.0000,-0.5236 0.3696,-0.8470 0.3696 -0.8470c 0.3696,-0.3234 0.9394,-0.3234 0.9394 -0.3234c 0.5852,0.0000 0.9471,0.3234 0.9471 0.3234c 0.3619,0.3234 0.3619,0.8470 0.3619 0.8470c 0.0000,0.5236 -0.3619,0.8547 -0.3619 0.8547c -0.3619,0.3311 -0.9471,0.3311 -0.9471 0.3311ZM 422.1304,5.3388 ZM 421.0062,6.4630 h 2.2639 v 7.6386 h -2.2639 v -7.6386 ZM 424.2556,14.1016 ZM 424.8101,10.2823 c 0.0000,-0.9548 0.3234,-1.7017 0.3234 -1.7017c 0.3234,-0.7469 0.8701,-1.2551 0.8701 -1.2551c 0.5467,-0.5082 1.2705,-0.7777 1.2705 -0.7777c 0.7238,-0.2695 1.5092,-0.2695 1.5092 -0.2695c 0.7084,0.0000 1.2782,0.2387 1.2782 0.2387c 0.5698,0.2387 0.9548,0.6391 0.9548 0.6391l -1.0318,1.4014 c -0.5390,-0.4466 -1.0626,-0.4466 -1.0626 -0.4466c -0.8316,-0.0000 -1.3090,0.5852 -1.3090 0.5852c -0.4774,0.5852 -0.4774,1.5862 -0.4774 1.5862c 0.0000,1.0010 0.4851,1.5862 0.4851 1.5862c 0.4851,0.5852 1.2243,0.5852 1.2243 0.5852c 0.4158,0.0000 0.7546,-0.1694 0.7546 -0.1694c 0.3388,-0.1694 0.6160,-0.3850 0.6160 -0.3850l 0.9086,1.4322 c -0.5544,0.4928 -1.2320,0.7238 -1.2320 0.7238c -0.6776,0.2310 -1.3090,0.2310 -1.3090 0.2310c -0.8008,-0.0000 -1.4861,-0.2695 -1.4861 -0.2695c -0.6853,-0.2695 -1.1935,-0.7777 -1.1935 -0.7777c -0.5082,-0.5082 -0.8008,-1.2551 -0.8008 -1.2551c -0.2926,-0.7469 -0.2926,-1.7017 -0.2926 -1.7017ZM 431.4476,14.1016 ZM 433.5729,5.3388 c -0.5698,-0.0000 -0.9394,-0.3311 -0.9394 -0.3311c -0.3696,-0.3311 -0.3696,-0.8547 -0.3696 -0.8547c 0.0000,-0.5236 0.3696,-0.8470 0.3696 -0.8470c 0.3696,-0.3234 0.9394,-0.3234 0.9394 -0.3234c 0.5852,0.0000 0.9471,0.3234 0.9471 0.3234c 0.3619,0.3234 0.3619,0.8470 0.3619 0.8470c 0.0000,0.5236 -0.3619,0.8547 -0.3619 0.8547c -0.3619,0.3311 -0.9471,0.3311 -0.9471 0.3311ZM 433.5729,5.3388 ZM 432.4487,6.4630 h 2.2639 v 7.6386 h -2.2639 v -7.6386 ZM 435.6982,14.1016 ZM 436.2526,10.2823 c 0.0000,-0.9240 0.3080,-1.6709 0.3080 -1.6709c 0.3080,-0.7469 0.8085,-1.2628 0.8085 -1.2628c 0.5005,-0.5159 1.1473,-0.7931 1.1473 -0.7931c 0.6468,-0.2772 1.3398,-0.2772 1.3398 -0.2772c 0.8162,0.0000 1.4245,0.2772 1.4245 0.2772c 0.6083,0.2772 1.0164,0.7700 1.0164 0.7700c 0.4081,0.4928 0.6083,1.1627 0.6083 1.1627c 0.2002,0.6699 0.2002,1.4553 0.2002 1.4553c 0.0000,0.3080 -0.0308,0.5621 -0.0308 0.5621c -0.0308,0.2541 -0.0616,0.3927 -0.0616 0.3927h -4.5739 c 0.1540,0.8778 0.6853,1.2705 0.6853 1.2705c 0.5313,0.3927 1.3013,0.3927 1.3013 0.3927c 0.8162,0.0000 1.6478,-0.5082 1.6478 -0.5082l 0.7546,1.3706 c -0.5852,0.4004 -1.3013,0.6314 -1.3013 0.6314c -0.7161,0.2310 -1.4091,0.2310 -1.4091 0.2310c -0.8162,-0.0000 -1.5246,-0.2695 -1.5246 -0.2695c -0.7084,-0.2695 -1.2320,-0.7854 -1.2320 -0.7854c -0.5236,-0.5159 -0.8162,-1.2551 -0.8162 -1.2551c -0.2926,-0.7392 -0.2926,-1.6940 -0.2926 -1.6940ZM 436.2526,10.2823 ZM 441.1807,9.4969 c 0.0000,-0.6622 -0.2926,-1.0780 -0.2926 -1.0780c -0.2926,-0.4158 -0.9856,-0.4158 -0.9856 -0.4158c -0.5390,-0.0000 -0.9471,0.3619 -0.9471 0.3619c -0.4081,0.3619 -0.5313,1.1319 -0.5313 1.1319h 2.7567 ZM 443.6756,14.1016 ZM 444.6766,6.4630 h 1.8480 l 0.1540,0.9702 h 0.0616 c 0.4928,-0.4620 1.0780,-0.8085 1.0780 -0.8085c 0.5852,-0.3465 1.3706,-0.3465 1.3706 -0.3465c 1.2474,0.0000 1.8095,0.8162 1.8095 0.8162c 0.5621,0.8162 0.5621,2.2639 0.5621 2.2639v 4.7433 h -2.2639 v -4.4507 c 0.0000,-0.8316 -0.2233,-1.1396 -0.2233 -1.1396c -0.2233,-0.3080 -0.7161,-0.3080 -0.7161 -0.3080c -0.4312,-0.0000 -0.7392,0.1925 -0.7392 0.1925c -0.3080,0.1925 -0.6776,0.5467 -0.6776 0.5467v 5.1591 h -2.2639 v -7.6386 ZM 452.4846,14.1016 ZM 453.7936,8.2341 h -1.0472 v -1.6786 l 1.1704,-0.0924 l 0.2618,-2.0329 h 1.8789 v 2.0329 h 1.8326 v 1.7710 h -1.8326 v 3.0647 c 0.0000,0.6468 0.2695,0.9317 0.2695 0.9317c 0.2695,0.2849 0.7161,0.2849 0.7161 0.2849c 0.1848,0.0000 0.3773,-0.0462 0.3773 -0.0462c 0.1925,-0.0462 0.3465,-0.1078 0.3465 -0.1078l 0.3542,1.6478 c -0.3080,0.0924 -0.7238,0.1848 -0.7238 0.1848c -0.4158,0.0924 -0.9702,0.0924 -0.9702 0.0924c -0.7084,-0.0000 -1.2089,-0.2156 -1.2089 -0.2156c -0.5005,-0.2156 -0.8162,-0.6006 -0.8162 -0.6006c -0.3157,-0.3850 -0.4620,-0.9317 -0.4620 -0.9317c -0.1463,-0.5467 -0.1463,-1.2089 -0.1463 -1.2089v -3.0955 ZM 458.3830,14.1016 ZM 459.7228,11.8070 c 0.5236,0.4004 1.0010,0.6006 1.0010 0.6006c 0.4774,0.2002 0.9702,0.2002 0.9702 0.2002c 0.5082,0.0000 0.7392,-0.1694 0.7392 -0.1694c 0.2310,-0.1694 0.2310,-0.4774 0.2310 -0.4774c 0.0000,-0.1848 -0.1309,-0.3311 -0.1309 -0.3311c -0.1309,-0.1463 -0.3542,-0.2695 -0.3542 -0.2695c -0.2233,-0.1232 -0.5005,-0.2233 -0.5005 -0.2233c -0.2772,-0.1001 -0.5698,-0.2233 -0.5698 -0.2233c -0.3542,-0.1386 -0.7084,-0.3234 -0.7084 -0.3234c -0.3542,-0.1848 -0.6468,-0.4543 -0.6468 -0.4543c -0.2926,-0.2695 -0.4774,-0.6314 -0.4774 -0.6314c -0.1848,-0.3619 -0.1848,-0.8393 -0.1848 -0.8393c 0.0000,-0.5236 0.2079,-0.9702 0.2079 -0.9702c 0.2079,-0.4466 0.5929,-0.7546 0.5929 -0.7546c 0.3850,-0.3080 0.9240,-0.4851 0.9240 -0.4851c 0.5390,-0.1771 1.2012,-0.1771 1.2012 -0.1771c 0.8778,0.0000 1.5400,0.3003 1.5400 0.3003c 0.6622,0.3003 1.1550,0.6699 1.1550 0.6699l -1.0164,1.3552 c -0.4158,-0.3080 -0.8162,-0.4774 -0.8162 -0.4774c -0.4004,-0.1694 -0.8008,-0.1694 -0.8008 -0.1694c -0.8624,-0.0000 -0.8624,0.6006 -0.8624 0.6006c 0.0000,0.1848 0.1232,0.3157 0.1232 0.3157c 0.1232,0.1309 0.3311,0.2387 0.3311 0.2387c 0.2079,0.1078 0.4774,0.2079 0.4774 0.2079c 0.2695,0.1001 0.5621,0.2079 0.5621 0.2079c 0.3696,0.1386 0.7315,0.3157 0.7315 0.3157c 0.3619,0.1771 0.6622,0.4389 0.6622 0.4389c 0.3003,0.2618 0.4851,0.6391 0.4851 0.6391c 0.1848,0.3773 0.1848,0.9009 0.1848 0.9009c 0.0000,0.5236 -0.2002,0.9702 -0.2002 0.9702c -0.2002,0.4466 -0.6006,0.7777 -0.6006 0.7777c -0.4004,0.3311 -0.9856,0.5236 -0.9856 0.5236c -0.5852,0.1925 -1.3552,0.1925 -1.3552 0.1925c -0.7546,-0.0000 -1.5477,-0.2926 -1.5477 -0.2926c -0.7931,-0.2926 -1.3783,-0.7700 -1.3783 -0.7700Z"/></g><g fill="rgb(0,0,0)" stroke="rgb(211,211,211)" stroke-dashoffset="0.0" stroke-dasharray="4.999999999999998,4.999999999999998" stroke-linecap="butt" stroke-width="0.9999999999999997" stroke-miterlimit="10.0" fill-opacity="0.0" stroke-opacity="1.0" stroke-linejoin="miter"><path d="M 50.0315,35.0000 v 505.0000 "/></g><g fill="rgb(0,0,0)" stroke="rgb(211,211,211)" stroke-dashoffset="0.0" stroke-dasharray="4.999999999999998,4.999999999999998" stroke-linecap="butt" stroke-width="0.9999999999999997" stroke-miterlimit="10.0" fill-opacity="0.0" stroke-opacity="1.0" stroke-linejoin="miter"><path d="M 294.2927,35.0000 v 505.0000 "/></g><g fill="rgb(0,0,0)" stroke="rgb(211,211,211)" stroke-dashoffset="0.0" stroke-dasharray="4.999999999999998,4.999999999999998" stroke-linecap="butt" stroke-width="0.9999999999999997" stroke-miterlimit="10.0" fill-opacity="0.0" stroke-opacity="1.0" stroke-linejoin="miter"><path d="M 538.5539,35.0000 v 505.0000 "/></g><g fill="rgb(0,0,0)" stroke="rgb(211,211,211)" stroke-dashoffset="0.0" stroke-dasharray="4.999999999999998,4.999999999999998" stroke-linecap="butt" stroke-width="0.9999999999999997" stroke-miterlimit="10.0" fill-opacity="0.0" stroke-opacity="1.0" stroke-linejoin="miter"><path d="M 782.8151,35.0000 v 505.0000 "/></g><g fill="rgb(0,0,0)" stroke="rgb(211,211,211)" stroke-dashoffset="0.0" stroke-dasharray="4.999999999999998,4.999999999999998" stroke-linecap="butt" stroke-width="0.9999999999999997" stroke-miterlimit="10.0" fill-opacity="0.0" stroke-opacity="1.0" stroke-linejoin="miter"><path d="M 50.0315,540.0000 h 732.7836 "/></g><g fill="rgb(0,0,0)" stroke="rgb(211,211,211)" stroke-dashoffset="0.0" stroke-dasharray="4.999999999999998,4.999999999999998" stroke-linecap="butt" stroke-width="0.9999999999999997" stroke-miterlimit="10.0" fill-opacity="0.0" stroke-opacity="1.0" stroke-linejoin="miter"><path d="M 50.0315,371.6667 h 732.7836 "/></g><g fill="rgb(0,0,0)" stroke="rgb(211,211,211)" stroke-dashoffset="0.0" stroke-dasharray="4.999999999999998,4.999999999999998" stroke-linecap="butt" stroke-width="0.9999999999999997" stroke-miterlimit="10.0" fill-opacity="0.0" stroke-opacity="1.0" stroke-linejoin="miter"><path d="M 50.0315,203.3333 h 732.7836 "/></g><g fill="rgb(0,0,0)" stroke="rgb(211,211,211)" stroke-dashoffset="0.0" stroke-dasharray="4.999999999999998,4.999999999999998" stroke-linecap="butt" stroke-width="0.9999999999999997" stroke-miterlimit="10.0" fill-opacity="0.0" stroke-opacity="1.0" stroke-linejoin="miter"><path d="M 50.0315,35.0000 h 732.7836 "/></g><g fill="rgb(0,0,255)" stroke="rgb(0,0,0)" stroke-linecap="butt" stroke-width="0.0" stroke-miterlimit="10.0" fill-opacity="1.0" stroke-opacity="0.0" stroke-linejoin="bevel"><defs><clipPath id="myClip1"><path d="M 50.0315,35.0000 v 505.0000 h 732.7836 v -505.0000 Z"/></clipPath></defs><g clip-path="url(#myClip1)"><path d="M 208.3587,506.3333 c 0.0000,1.1046 -0.8954,2.0000 -2.0000 2.0000c -1.1046,0.0000 -2.0000,-0.8954 -2.0000 -2.0000c -0.0000,-1.1046 0.8954,-2.0000 2.0000 -2.0000c 1.1046,-0.0000 2.0000,0.8954 2.0000 2.0000Z"/></g></g><g fill="rgb(0,0,0)" stroke="rgb(0,0,0)" stroke-linecap="butt" stroke-width="0.0" stroke-miterlimit="10.0" fill-opacity="0.0" stroke-opacity="0.0" stroke-linejoin="miter"><defs><clipPath id="myClip2"><path d="M 50.0315,35.0000 v 505.0000 h 732.7836 v -505.0000 Z"/></clipPath></defs><g clip-path="url(#myClip2)"><path d="M 208.3587,506.3333 c 0.0000,1.1046 -0.8954,2.0000 -2.0000 2.0000c -1.1046,0.0000 -2.0000,-0.8954 -2.0000 -2.0000c -0.0000,-1.1046 0.8954,-2.0000 2.0000 -2.0000c 1.1046,-0.0000 2.0000,0.8954 2.0000 2.0000"/></g></g><g fill="rgb(0,0,255)" stroke="rgb(0,0,0)" stroke-linecap="butt" stroke-width="0.0" stroke-miterlimit="10.0" fill-opacity="1.0" stroke-opacity="0.0" stroke-linejoin="bevel"><defs><clipPath id="myClip3"><path d="M 50.0315,35.0000 v 505.0000 h 732.7836 v -505.0000 Z"/></clipPath></defs><g clip-path="url(#myClip3)"><path d="M 364.6859,439.0000 c 0.0000,1.1046 -0.8954,2.0000 -2.0000 2.0000c -1.1046,0.0000 -2.0000,-0.8954 -2.0000 -2.0000c -0.0000,-1.1046 0.8954,-2.0000 2.0000 -2.0000c 1.1046,-0.0000 2.0000,0.8954 2.0000 2.0000Z"/></g></g><g fill="rgb(0,0,0)" stroke="rgb(0,0,0)" stroke-linecap="butt" stroke-width="0.0" stroke-miterlimit="10.0" fill-opacity="0.0" stroke-opacity="0.0" stroke-linejoin="miter"><defs><clipPath id="myClip4"><path d="M 50.0315,35.0000 v 505.0000 h 732.7836 v -505.0000 Z"/></clipPath></defs><g clip-path="url(#myClip4)"><path d="M 364.6859,439.0000 c 0.0000,1.1046 -0.8954,2.0000 -2.0000 2.0000c -1.1046,0.0000 -2.0000,-0.8954 -2.0000 -2.0000c -0.0000,-1.1046 0.8954,-2.0000 2.0000 -2.0000c 1.1046,-0.0000 2.0000,0.8954 2.0000 2.0000"/></g></g><g fill="rgb(0,0,255)" stroke="rgb(0,0,0)" stroke-linecap="butt" stroke-width="0.0" stroke-miterlimit="10.0" fill-opacity="1.0" stroke-opacity="0.0" stroke-linejoin="bevel"><defs><clipPath id="myClip5"><path d="M 50.0315,35.0000 v 505.0000 h 732.7836 v -505.0000 Z"/></clipPath></defs><g clip-path="url(#myClip5)"><path d="M 677.3402,68.6667 c 0.0000,1.1046 -0.8954,2.0000 -2.0000 2.0000c -1.1046,0.0000 -2.0000,-0.8954 -2.0000 -2.0000c -0.0000,-1.1046 0.8954,-2.0000 2.0000 -2.0000c 1.1046,-0.0000 2.0000,0.8954 2.0000 2.0000Z"/></g></g><g fill="rgb(0,0,0)" stroke="rgb(0,0,0)" stroke-linecap="butt" stroke-width="0.0" stroke-miterlimit="10.0" fill-opacity="0.0" stroke-opacity="0.0" stroke-linejoin="miter"><defs><clipPath id="myClip6"><path d="M 50.0315,35.0000 v 505.0000 h 732.7836 v -505.0000 Z"/></clipPath></defs><g clip-path="url(#myClip6)"><path d="M 677.3402,68.6667 c 0.0000,1.1046 -0.8954,2.0000 -2.0000 2.0000c -1.1046,0.0000 -2.0000,-0.8954 -2.0000 -2.0000c -0.0000,-1.1046 0.8954,-2.0000 2.0000 -2.0000c 1.1046,-0.0000 2.0000,0.8954 2.0000 2.0000"/></g></g><g fill="rgb(0,0,255)" stroke="rgb(0,0,0)" stroke-linecap="butt" stroke-width="0.0" stroke-miterlimit="10.0" fill-opacity="1.0" stroke-opacity="0.0" stroke-linejoin="bevel"><defs><clipPath id="myClip7"><path d="M 50.0315,35.0000 v 505.0000 h 732.7836 v -505.0000 Z"/></clipPath></defs><g clip-path="url(#myClip7)"><path d="M 71.5724,506.3333 c 0.0000,1.1046 -0.8954,2.0000 -2.0000 2.0000c -1.1046,0.0000 -2.0000,-0.8954 -2.0000 -2.0000c -0.0000,-1.1046 0.8954,-2.0000 2.0000 -2.0000c 1.1046,-0.0000 2.0000,0.8954 2.0000 2.0000Z"/></g></g><g fill="rgb(0,0,0)" stroke="rgb(0,0,0)" stroke-linecap="butt" stroke-width="0.0" stroke-miterlimit="10.0" fill-opacity="0.0" stroke-opacity="0.0" stroke-linejoin="miter"><defs><clipPath id="myClip8"><path d="M 50.0315,35.0000 v 505.0000 h 732.7836 v -505.0000 Z"/></clipPath></defs><g clip-path="url(#myClip8)"><path d="M 71.5724,506.3333 c 0.0000,1.1046 -0.8954,2.0000 -2.0000 2.0000c -1.1046,0.0000 -2.0000,-0.8954 -2.0000 -2.0000c -0.0000,-1.1046 0.8954,-2.0000 2.0000 -2.0000c 1.1046,-0.0000 2.0000,0.8954 2.0000 2.0000"/></g></g><g fill="rgb(0,0,255)" stroke="rgb(0,0,0)" stroke-linecap="butt" stroke-width="0.0" stroke-miterlimit="10.0" fill-opacity="1.0" stroke-opacity="0.0" stroke-linejoin="bevel"><defs><clipPath id="myClip9"><path d="M 50.0315,35.0000 v 505.0000 h 732.7836 v -505.0000 Z"/></clipPath></defs><g clip-path="url(#myClip9)"><path d="M 91.1133,506.3333 c 0.0000,1.1046 -0.8954,2.0000 -2.0000 2.0000c -1.1046,0.0000 -2.0000,-0.8954 -2.0000 -2.0000c -0.0000,-1.1046 0.8954,-2.0000 2.0000 -2.0000c 1.1046,-0.0000 2.0000,0.8954 2.0000 2.0000Z"/></g></g><g fill="rgb(0,0,0)" stroke="rgb(0,0,0)" stroke-linecap="butt" stroke-width="0.0" stroke-miterlimit="10.0" fill-opacity="0.0" stroke-opacity="0.0" stroke-linejoin="miter"><defs><clipPath id="myClip10"><path d="M 50.0315,35.0000 v 505.0000 h 732.7836 v -505.0000 Z"/></clipPath></defs><g clip-path="url(#myClip10)"><path d="M 91.1133,506.3333 c 0.0000,1.1046 -0.8954,2.0000 -2.0000 2.0000c -1.1046,0.0000 -2.0000,-0.8954 -2.0000 -2.0000c -0.0000,-1.1046 0.8954,-2.0000 2.0000 -2.0000c 1.1046,-0.0000 2.0000,0.8954 2.0000 2.0000"/></g></g><g fill="rgb(0,0,255)" stroke="rgb(0,0,0)" stroke-linecap="butt" stroke-width="0.0" stroke-miterlimit="10.0" fill-opacity="1.0" stroke-opacity="0.0" stroke-linejoin="bevel"><defs><clipPath id="myClip11"><path d="M 50.0315,35.0000 v 505.0000 h 732.7836 v -505.0000 Z"/></clipPath></defs><g clip-path="url(#myClip11)"><path d="M 130.1951,506.3333 c 0.0000,1.1046 -0.8954,2.0000 -2.0000 2.0000c -1.1046,0.0000 -2.0000,-0.8954 -2.0000 -2.0000c -0.0000,-1.1046 0.8954,-2.0000 2.0000 -2.0000c 1.1046,-0.0000 2.0000,0.8954 2.0000 2.0000Z"/></g></g><g fill="rgb(0,0,0)" stroke="rgb(0,0,0)" stroke-linecap="butt" stroke-width="0.0" stroke-miterlimit="10.0" fill-opacity="0.0" stroke-opacity="0.0" stroke-linejoin="miter"><defs><clipPath id="myClip12"><path d="M 50.0315,35.0000 v 505.0000 h 732.7836 v -505.0000 Z"/></clipPath></defs><g clip-path="url(#myClip12)"><path d="M 130.1951,506.3333 c 0.0000,1.1046 -0.8954,2.0000 -2.0000 2.0000c -1.1046,0.0000 -2.0000,-0.8954 -2.0000 -2.0000c -0.0000,-1.1046 0.8954,-2.0000 2.0000 -2.0000c 1.1046,-0.0000 2.0000,0.8954 2.0000 2.0000"/></g></g><g fill="rgb(0,0,0)" stroke="rgb(0,0,0)" stroke-linecap="square" stroke-width="0.9999999999999997" stroke-miterlimit="10.0" fill-opacity="0.0" stroke-opacity="1.0" stroke-linejoin="miter"><path d="M 50.0315,540.0000 v -505.0000 "/></g><g fill="rgb(0,0,0)" stroke="rgb(0,0,0)" stroke-linecap="butt" stroke-width="0.9999999999999997" stroke-miterlimit="10.0" fill-opacity="0.0" stroke-opacity="1.0" stroke-linejoin="miter"><path d="M 50.0315,540.0000 h 2.0000 "/></g><g fill="rgb(0,0,0)" stroke="rgb(0,0,0)" stroke-linecap="butt" stroke-width="0.9999999999999997" stroke-miterlimit="10.0" fill-opacity="0.0" stroke-opacity="1.0" stroke-linejoin="miter"><path d="M 50.0315,455.8333 h 2.0000 "/></g><g fill="rgb(0,0,0)" stroke="rgb(0,0,0)" stroke-linecap="butt" stroke-width="0.9999999999999997" stroke-miterlimit="10.0" fill-opacity="0.0" stroke-opacity="1.0" stroke-linejoin="miter"><path d="M 50.0315,371.6667 h 2.0000 "/></g><g fill="rgb(0,0,0)" stroke="rgb(0,0,0)" stroke-linecap="butt" stroke-width="0.9999999999999997" stroke-miterlimit="10.0" fill-opacity="0.0" stroke-opacity="1.0" stroke-linejoin="miter"><path d="M 50.0315,287.5000 h 2.0000 "/></g><g fill="rgb(0,0,0)" stroke="rgb(0,0,0)" stroke-linecap="butt" stroke-width="0.9999999999999997" stroke-miterlimit="10.0" fill-opacity="0.0" stroke-opacity="1.0" stroke-linejoin="miter"><path d="M 50.0315,203.3333 h 2.0000 "/></g><g fill="rgb(0,0,0)" stroke="rgb(0,0,0)" stroke-linecap="butt" stroke-width="0.9999999999999997" stroke-miterlimit="10.0" fill-opacity="0.0" stroke-opacity="1.0" stroke-linejoin="miter"><path d="M 50.0315,119.1667 h 2.0000 "/></g><g fill="rgb(0,0,0)" stroke="rgb(0,0,0)" stroke-linecap="butt" stroke-width="0.9999999999999997" stroke-miterlimit="10.0" fill-opacity="0.0" stroke-opacity="1.0" stroke-linejoin="miter"><path d="M 50.0315,35.0000 h 2.0000 "/></g><g fill="rgb(0,0,0)" stroke="rgb(0,0,0)" stroke-linecap="butt" stroke-width="0.9999999999999997" stroke-miterlimit="10.0" fill-opacity="0.0" stroke-opacity="1.0" stroke-linejoin="miter"><path d="M 50.0315,540.0000 h 5.0000 "/></g><g fill="rgb(0,0,0)" stroke="rgb(0,0,0)" stroke-linecap="butt" stroke-width="0.9999999999999997" stroke-miterlimit="10.0" fill-opacity="0.0" stroke-opacity="1.0" stroke-linejoin="miter"><path d="M 50.0315,371.6667 h 5.0000 "/></g><g fill="rgb(0,0,0)" stroke="rgb(0,0,0)" stroke-linecap="butt" stroke-width="0.9999999999999997" stroke-miterlimit="10.0" fill-opacity="0.0" stroke-opacity="1.0" stroke-linejoin="miter"><path d="M 50.0315,203.3333 h 5.0000 "/></g><g fill="rgb(0,0,0)" stroke="rgb(0,0,0)" stroke-linecap="butt" stroke-width="0.9999999999999997" stroke-miterlimit="10.0" fill-opacity="0.0" stroke-opacity="1.0" stroke-linejoin="miter"><path d="M 50.0315,35.0000 h 5.0000 "/></g><g fill="rgb(0,0,0)" stroke="rgb(0,0,0)" stroke-linecap="butt" stroke-width="0.0" stroke-miterlimit="10.0" fill-opacity="1.0" stroke-opacity="0.0" stroke-linejoin="bevel"><path d="M 10.0000,543.4454 ZM 10.8298,542.7311 h 1.5336 v -4.9370 h -1.2185 v -0.5567 c 0.4622,-0.0840 0.8036,-0.2048 0.8036 -0.2048c 0.3414,-0.1208 0.6145,-0.2889 0.6145 -0.2889h 0.6618 v 5.9874 h 1.3866 v 0.7143 h -3.7815 v -0.7143 ZM 15.2206,543.4454 ZM 17.6891,540.1891 c 0.3256,0.0000 0.6985,-0.2048 0.6985 -0.2048c 0.3729,-0.2048 0.7090,-0.6880 0.7090 -0.6880c -0.0840,-0.9874 -0.4622,-1.4916 -0.4622 -1.4916c -0.3782,-0.5042 -1.0189,-0.5042 -1.0189 -0.5042c -0.2416,-0.0000 -0.4569,0.1050 -0.4569 0.1050c -0.2153,0.1050 -0.3729,0.2994 -0.3729 0.2994c -0.1576,0.1943 -0.2468,0.4674 -0.2468 0.4674c -0.0893,0.2731 -0.0893,0.5987 -0.0893 0.5987c 0.0000,0.6618 0.3046,1.0399 0.3046 1.0399c 0.3046,0.3782 0.9349,0.3782 0.9349 0.3782ZM 17.6891,540.1891 ZM 16.2395,542.3214 c 0.2101,0.2416 0.4989,0.3887 0.4989 0.3887c 0.2889,0.1471 0.6040,0.1471 0.6040 0.1471c 0.3571,0.0000 0.6723,-0.1471 0.6723 -0.1471c 0.3151,-0.1471 0.5567,-0.4884 0.5567 -0.4884c 0.2416,-0.3414 0.3887,-0.8876 0.3887 -0.8876c 0.1471,-0.5462 0.1576,-1.3550 0.1576 -1.3550c -0.3151,0.3992 -0.7353,0.6303 -0.7353 0.6303c -0.4202,0.2311 -0.8403,0.2311 -0.8403 0.2311c -0.8718,-0.0000 -1.3866,-0.5147 -1.3866 -0.5147c -0.5147,-0.5147 -0.5147,-1.5546 -0.5147 -1.5546c 0.0000,-0.4832 0.1576,-0.8771 0.1576 -0.8771c 0.1576,-0.3939 0.4254,-0.6775 0.4254 -0.6775c 0.2679,-0.2836 0.6303,-0.4412 0.6303 -0.4412c 0.3624,-0.1576 0.7616,-0.1576 0.7616 -0.1576c 0.4937,0.0000 0.9191,0.1996 0.9191 0.1996c 0.4254,0.1996 0.7353,0.6040 0.7353 0.6040c 0.3099,0.4044 0.4832,1.0084 0.4832 1.0084c 0.1733,0.6040 0.1733,1.4128 0.1733 1.4128c 0.0000,1.0084 -0.2101,1.7174 -0.2101 1.7174c -0.2101,0.7090 -0.5672,1.1555 -0.5672 1.1555c -0.3571,0.4464 -0.8141,0.6513 -0.8141 0.6513c -0.4569,0.2048 -0.9611,0.2048 -0.9611 0.2048c -0.5357,-0.0000 -0.9401,-0.1996 -0.9401 -0.1996c -0.4044,-0.1996 -0.6775,-0.5042 -0.6775 -0.5042ZM 20.4412,543.4454 ZM 22.9097,540.1891 c 0.3256,0.0000 0.6985,-0.2048 0.6985 -0.2048c 0.3729,-0.2048 0.7090,-0.6880 0.7090 -0.6880c -0.0840,-0.9874 -0.4622,-1.4916 -0.4622 -1.4916c -0.3782,-0.5042 -1.0189,-0.5042 -1.0189 -0.5042c -0.2416,-0.0000 -0.4569,0.1050 -0.4569 0.1050c -0.2153,0.1050 -0.3729,0.2994 -0.3729 0.2994c -0.1576,0.1943 -0.2468,0.4674 -0.2468 0.4674c -0.0893,0.2731 -0.0893,0.5987 -0.0893 0.5987c 0.0000,0.6618 0.3046,1.0399 0.3046 1.0399c 0.3046,0.3782 0.9349,0.3782 0.9349 0.3782ZM 22.9097,540.1891 ZM 21.4601,542.3214 c 0.2101,0.2416 0.4989,0.3887 0.4989 0.3887c 0.2889,0.1471 0.6040,0.1471 0.6040 0.1471c 0.3571,0.0000 0.6723,-0.1471 0.6723 -0.1471c 0.3151,-0.1471 0.5567,-0.4884 0.5567 -0.4884c 0.2416,-0.3414 0.3887,-0.8876 0.3887 -0.8876c 0.1471,-0.5462 0.1576,-1.3550 0.1576 -1.3550c -0.3151,0.3992 -0.7353,0.6303 -0.7353 0.6303c -0.4202,0.2311 -0.8403,0.2311 -0.8403 0.2311c -0.8718,-0.0000 -1.3866,-0.5147 -1.3866 -0.5147c -0.5147,-0.5147 -0.5147,-1.5546 -0.5147 -1.5546c 0.0000,-0.4832 0.1576,-0.8771 0.1576 -0.8771c 0.1576,-0.3939 0.4254,-0.6775 0.4254 -0.6775c 0.2679,-0.2836 0.6303,-0.4412 0.6303 -0.4412c 0.3624,-0.1576 0.7616,-0.1576 0.7616 -0.1576c 0.4937,0.0000 0.9191,0.1996 0.9191 0.1996c 0.4254,0.1996 0.7353,0.6040 0.7353 0.6040c 0.3099,0.4044 0.4832,1.0084 0.4832 1.0084c 0.1733,0.6040 0.1733,1.4128 0.1733 1.4128c 0.0000,1.0084 -0.2101,1.7174 -0.2101 1.7174c -0.2101,0.7090 -0.5672,1.1555 -0.5672 1.1555c -0.3571,0.4464 -0.8141,0.6513 -0.8141 0.6513c -0.4569,0.2048 -0.9611,0.2048 -0.9611 0.2048c -0.5357,-0.0000 -0.9401,-0.1996 -0.9401 -0.1996c -0.4044,-0.1996 -0.6775,-0.5042 -0.6775 -0.5042ZM 25.6618,543.4454 ZM 26.0819,542.9307 c 0.7563,-0.7563 1.3445,-1.3655 1.3445 -1.3655c 0.5882,-0.6092 0.9874,-1.1292 0.9874 -1.1292c 0.3992,-0.5200 0.6092,-0.9559 0.6092 -0.9559c 0.2101,-0.4359 0.2101,-0.8456 0.2101 -0.8456c 0.0000,-0.5777 -0.3151,-0.9454 -0.3151 -0.9454c -0.3151,-0.3676 -0.9559,-0.3676 -0.9559 -0.3676c -0.4202,-0.0000 -0.7773,0.2363 -0.7773 0.2363c -0.3571,0.2363 -0.6513,0.5725 -0.6513 0.5725l -0.4937,-0.4937 c 0.4202,-0.4622 0.8929,-0.7405 0.8929 -0.7405c 0.4727,-0.2784 1.1345,-0.2784 1.1345 -0.2784c 0.9349,0.0000 1.4706,0.5410 1.4706 0.5410c 0.5357,0.5410 0.5357,1.4338 0.5357 1.4338c 0.0000,0.4727 -0.2048,0.9506 -0.2048 0.9506c -0.2048,0.4779 -0.5672,0.9874 -0.5672 0.9874c -0.3624,0.5095 -0.8613,1.0609 -0.8613 1.0609c -0.4989,0.5515 -1.0977,1.1712 -1.0977 1.1712c 0.2731,-0.0210 0.5672,-0.0420 0.5672 -0.0420c 0.2941,-0.0210 0.5567,-0.0210 0.5567 -0.0210h 1.9433 v 0.7458 h -4.3277 v -0.5147 ZM 30.8824,543.4454 ZM 32.7416,543.4454 c 0.0420,-0.9454 0.1681,-1.7332 0.1681 -1.7332c 0.1261,-0.7878 0.3519,-1.4968 0.3519 -1.4968c 0.2258,-0.7090 0.5777,-1.3708 0.5777 -1.3708c 0.3519,-0.6618 0.8456,-1.3550 0.8456 -1.3550h -3.3403 v -0.7458 h 4.3172 v 0.5357 c -0.5987,0.7563 -0.9716,1.4496 -0.9716 1.4496c -0.3729,0.6933 -0.5935,1.4128 -0.5935 1.4128c -0.2206,0.7195 -0.3204,1.5231 -0.3204 1.5231c -0.0998,0.8036 -0.1418,1.7805 -0.1418 1.7805h -0.8929 h 0.0000 ZM 36.1029,543.4454 ZM 38.7185,543.5714 c -1.0189,-0.0000 -1.5861,-0.9034 -1.5861 -0.9034c -0.5672,-0.9034 -0.5672,-2.5945 -0.5672 -2.5945c 0.0000,-1.6912 0.5672,-2.5735 0.5672 -2.5735c 0.5672,-0.8824 1.5861,-0.8824 1.5861 -0.8824c 1.0084,0.0000 1.5756,0.8824 1.5756 0.8824c 0.5672,0.8824 0.5672,2.5735 0.5672 2.5735c 0.0000,1.6912 -0.5672,2.5945 -0.5672 2.5945c -0.5672,0.9034 -1.5756,0.9034 -1.5756 0.9034ZM 38.7185,543.5714 ZM 38.7185,542.8782 c 0.2941,0.0000 0.5305,-0.1628 0.5305 -0.1628c 0.2363,-0.1628 0.4097,-0.5042 0.4097 -0.5042c 0.1733,-0.3414 0.2679,-0.8718 0.2679 -0.8718c 0.0945,-0.5305 0.0945,-1.2658 0.0945 -1.2658c 0.0000,-0.7353 -0.0945,-1.2605 -0.0945 -1.2605c -0.0945,-0.5252 -0.2679,-0.8561 -0.2679 -0.8561c -0.1733,-0.3309 -0.4097,-0.4884 -0.4097 -0.4884c -0.2363,-0.1576 -0.5305,-0.1576 -0.5305 -0.1576c -0.2941,-0.0000 -0.5357,0.1576 -0.5357 0.1576c -0.2416,0.1576 -0.4149,0.4884 -0.4149 0.4884c -0.1733,0.3309 -0.2679,0.8561 -0.2679 0.8561c -0.0945,0.5252 -0.0945,1.2605 -0.0945 1.2605c 0.0000,1.4706 0.3624,2.1376 0.3624 2.1376c 0.3624,0.6670 0.9506,0.6670 0.9506 0.6670Z"/></g><g fill="rgb(0,0,0)" stroke="rgb(0,0,0)" stroke-linecap="butt" stroke-width="0.0" stroke-miterlimit="10.0" fill-opacity="1.0" stroke-opacity="0.0" stroke-linejoin="bevel"><path d="M 10.0000,375.1120 ZM 10.8298,374.3978 h 1.5336 v -4.9370 h -1.2185 v -0.5567 c 0.4622,-0.0840 0.8036,-0.2048 0.8036 -0.2048c 0.3414,-0.1208 0.6145,-0.2889 0.6145 -0.2889h 0.6618 v 5.9874 h 1.3866 v 0.7143 h -3.7815 v -0.7143 ZM 15.2206,375.1120 ZM 17.6891,371.8557 c 0.3256,0.0000 0.6985,-0.2048 0.6985 -0.2048c 0.3729,-0.2048 0.7090,-0.6880 0.7090 -0.6880c -0.0840,-0.9874 -0.4622,-1.4916 -0.4622 -1.4916c -0.3782,-0.5042 -1.0189,-0.5042 -1.0189 -0.5042c -0.2416,-0.0000 -0.4569,0.1050 -0.4569 0.1050c -0.2153,0.1050 -0.3729,0.2994 -0.3729 0.2994c -0.1576,0.1943 -0.2468,0.4674 -0.2468 0.4674c -0.0893,0.2731 -0.0893,0.5987 -0.0893 0.5987c 0.0000,0.6618 0.3046,1.0399 0.3046 1.0399c 0.3046,0.3782 0.9349,0.3782 0.9349 0.3782ZM 17.6891,371.8557 ZM 16.2395,373.9881 c 0.2101,0.2416 0.4989,0.3887 0.4989 0.3887c 0.2889,0.1471 0.6040,0.1471 0.6040 0.1471c 0.3571,0.0000 0.6723,-0.1471 0.6723 -0.1471c 0.3151,-0.1471 0.5567,-0.4884 0.5567 -0.4884c 0.2416,-0.3414 0.3887,-0.8876 0.3887 -0.8876c 0.1471,-0.5462 0.1576,-1.3550 0.1576 -1.3550c -0.3151,0.3992 -0.7353,0.6303 -0.7353 0.6303c -0.4202,0.2311 -0.8403,0.2311 -0.8403 0.2311c -0.8718,-0.0000 -1.3866,-0.5147 -1.3866 -0.5147c -0.5147,-0.5147 -0.5147,-1.5546 -0.5147 -1.5546c 0.0000,-0.4832 0.1576,-0.8771 0.1576 -0.8771c 0.1576,-0.3939 0.4254,-0.6775 0.4254 -0.6775c 0.2679,-0.2836 0.6303,-0.4412 0.6303 -0.4412c 0.3624,-0.1576 0.7616,-0.1576 0.7616 -0.1576c 0.4937,0.0000 0.9191,0.1996 0.9191 0.1996c 0.4254,0.1996 0.7353,0.6040 0.7353 0.6040c 0.3099,0.4044 0.4832,1.0084 0.4832 1.0084c 0.1733,0.6040 0.1733,1.4128 0.1733 1.4128c 0.0000,1.0084 -0.2101,1.7174 -0.2101 1.7174c -0.2101,0.7090 -0.5672,1.1555 -0.5672 1.1555c -0.3571,0.4464 -0.8141,0.6513 -0.8141 0.6513c -0.4569,0.2048 -0.9611,0.2048 -0.9611 0.2048c -0.5357,-0.0000 -0.9401,-0.1996 -0.9401 -0.1996c -0.4044,-0.1996 -0.6775,-0.5042 -0.6775 -0.5042ZM 20.4412,375.1120 ZM 22.9097,371.8557 c 0.3256,0.0000 0.6985,-0.2048 0.6985 -0.2048c 0.3729,-0.2048 0.7090,-0.6880 0.7090 -0.6880c -0.0840,-0.9874 -0.4622,-1.4916 -0.4622 -1.4916c -0.3782,-0.5042 -1.0189,-0.5042 -1.0189 -0.5042c -0.2416,-0.0000 -0.4569,0.1050 -0.4569 0.1050c -0.2153,0.1050 -0.3729,0.2994 -0.3729 0.2994c -0.1576,0.1943 -0.2468,0.4674 -0.2468 0.4674c -0.0893,0.2731 -0.0893,0.5987 -0.0893 0.5987c 0.0000,0.6618 0.3046,1.0399 0.3046 1.0399c 0.3046,0.3782 0.9349,0.3782 0.9349 0.3782ZM 22.9097,371.8557 ZM 21.4601,373.9881 c 0.2101,0.2416 0.4989,0.3887 0.4989 0.3887c 0.2889,0.1471 0.6040,0.1471 0.6040 0.1471c 0.3571,0.0000 0.6723,-0.1471 0.6723 -0.1471c 0.3151,-0.1471 0.5567,-0.4884 0.5567 -0.4884c 0.2416,-0.3414 0.3887,-0.8876 0.3887 -0.8876c 0.1471,-0.5462 0.1576,-1.3550 0.1576 -1.3550c -0.3151,0.3992 -0.7353,0.6303 -0.7353 0.6303c -0.4202,0.2311 -0.8403,0.2311 -0.8403 0.2311c -0.8718,-0.0000 -1.3866,-0.5147 -1.3866 -0.5147c -0.5147,-0.5147 -0.5147,-1.5546 -0.5147 -1.5546c 0.0000,-0.4832 0.1576,-0.8771 0.1576 -0.8771c 0.1576,-0.3939 0.4254,-0.6775 0.4254 -0.6775c 0.2679,-0.2836 0.6303,-0.4412 0.6303 -0.4412c 0.3624,-0.1576 0.7616,-0.1576 0.7616 -0.1576c 0.4937,0.0000 0.9191,0.1996 0.9191 0.1996c 0.4254,0.1996 0.7353,0.6040 0.7353 0.6040c 0.3099,0.4044 0.4832,1.0084 0.4832 1.0084c 0.1733,0.6040 0.1733,1.4128 0.1733 1.4128c 0.0000,1.0084 -0.2101,1.7174 -0.2101 1.7174c -0.2101,0.7090 -0.5672,1.1555 -0.5672 1.1555c -0.3571,0.4464 -0.8141,0.6513 -0.8141 0.6513c -0.4569,0.2048 -0.9611,0.2048 -0.9611 0.2048c -0.5357,-0.0000 -0.9401,-0.1996 -0.9401 -0.1996c -0.4044,-0.1996 -0.6775,-0.5042 -0.6775 -0.5042ZM 25.6618,375.1120 ZM 26.0819,374.5973 c 0.7563,-0.7563 1.3445,-1.3655 1.3445 -1.3655c 0.5882,-0.6092 0.9874,-1.1292 0.9874 -1.1292c 0.3992,-0.5200 0.6092,-0.9559 0.6092 -0.9559c 0.2101,-0.4359 0.2101,-0.8456 0.2101 -0.8456c 0.0000,-0.5777 -0.3151,-0.9454 -0.3151 -0.9454c -0.3151,-0.3676 -0.9559,-0.3676 -0.9559 -0.3676c -0.4202,-0.0000 -0.7773,0.2363 -0.7773 0.2363c -0.3571,0.2363 -0.6513,0.5725 -0.6513 0.5725l -0.4937,-0.4937 c 0.4202,-0.4622 0.8929,-0.7405 0.8929 -0.7405c 0.4727,-0.2784 1.1345,-0.2784 1.1345 -0.2784c 0.9349,0.0000 1.4706,0.5410 1.4706 0.5410c 0.5357,0.5410 0.5357,1.4338 0.5357 1.4338c 0.0000,0.4727 -0.2048,0.9506 -0.2048 0.9506c -0.2048,0.4779 -0.5672,0.9874 -0.5672 0.9874c -0.3624,0.5095 -0.8613,1.0609 -0.8613 1.0609c -0.4989,0.5515 -1.0977,1.1712 -1.0977 1.1712c 0.2731,-0.0210 0.5672,-0.0420 0.5672 -0.0420c 0.2941,-0.0210 0.5567,-0.0210 0.5567 -0.0210h 1.9433 v 0.7458 h -4.3277 v -0.5147 ZM 30.8824,375.1120 ZM 32.0903,373.3158 c 0.0000,0.2836 0.1103,0.5147 0.1103 0.5147c 0.1103,0.2311 0.3046,0.4044 0.3046 0.4044c 0.1943,0.1733 0.4569,0.2679 0.4569 0.2679c 0.2626,0.0945 0.5672,0.0945 0.5672 0.0945c 0.5882,0.0000 0.9506,-0.3256 0.9506 -0.3256c 0.3624,-0.3256 0.3624,-0.8508 0.3624 -0.8508c 0.0000,-0.3256 -0.1471,-0.5567 -0.1471 -0.5567c -0.1471,-0.2311 -0.3992,-0.4044 -0.3992 -0.4044c -0.2521,-0.1733 -0.5830,-0.3151 -0.5830 -0.3151c -0.3309,-0.1418 -0.6880,-0.2889 -0.6880 -0.2889c -0.3992,0.2731 -0.6670,0.6355 -0.6670 0.6355c -0.2679,0.3624 -0.2679,0.8246 -0.2679 0.8246ZM 32.0903,373.3158 ZM 33.9811,371.4566 c 0.3361,-0.3046 0.5200,-0.6408 0.5200 -0.6408c 0.1838,-0.3361 0.1838,-0.7038 0.1838 -0.7038c 0.0000,-0.5042 -0.3046,-0.8456 -0.3046 -0.8456c -0.3046,-0.3414 -0.8613,-0.3414 -0.8613 -0.3414c -0.4727,-0.0000 -0.7773,0.2941 -0.7773 0.2941c -0.3046,0.2941 -0.3046,0.7878 -0.3046 0.7878c 0.0000,0.3046 0.1261,0.5200 0.1261 0.5200c 0.1261,0.2153 0.3414,0.3834 0.3414 0.3834c 0.2153,0.1681 0.4937,0.2994 0.4937 0.2994c 0.2784,0.1313 0.5830,0.2468 0.5830 0.2468ZM 33.9811,371.4566 ZM 31.3130,373.3999 c 0.0000,-0.3256 0.1103,-0.6040 0.1103 -0.6040c 0.1103,-0.2784 0.2836,-0.5042 0.2836 -0.5042c 0.1733,-0.2258 0.3992,-0.3992 0.3992 -0.3992c 0.2258,-0.1733 0.4674,-0.2994 0.4674 -0.2994v -0.0420 c -0.3676,-0.2626 -0.6513,-0.6355 -0.6513 -0.6355c -0.2836,-0.3729 -0.2836,-0.9086 -0.2836 -0.9086c 0.0000,-0.3887 0.1471,-0.7038 0.1471 -0.7038c 0.1471,-0.3151 0.3992,-0.5410 0.3992 -0.5410c 0.2521,-0.2258 0.5987,-0.3519 0.5987 -0.3519c 0.3466,-0.1261 0.7563,-0.1261 0.7563 -0.1261c 0.4412,0.0000 0.7878,0.1313 0.7878 0.1313c 0.3466,0.1313 0.5935,0.3676 0.5935 0.3676c 0.2468,0.2363 0.3782,0.5672 0.3782 0.5672c 0.1313,0.3309 0.1313,0.7195 0.1313 0.7195c 0.0000,0.2626 -0.0893,0.5042 -0.0893 0.5042c -0.0893,0.2416 -0.2206,0.4517 -0.2206 0.4517c -0.1313,0.2101 -0.2941,0.3782 -0.2941 0.3782c -0.1628,0.1681 -0.3204,0.2836 -0.3204 0.2836v 0.0420 c 0.2206,0.1261 0.4307,0.2889 0.4307 0.2889c 0.2101,0.1628 0.3729,0.3676 0.3729 0.3676c 0.1628,0.2048 0.2626,0.4674 0.2626 0.4674c 0.0998,0.2626 0.0998,0.5987 0.0998 0.5987c 0.0000,0.3782 -0.1576,0.7038 -0.1576 0.7038c -0.1576,0.3256 -0.4412,0.5672 -0.4412 0.5672c -0.2836,0.2416 -0.6828,0.3782 -0.6828 0.3782c -0.3992,0.1366 -0.8824,0.1366 -0.8824 0.1366c -0.4727,-0.0000 -0.8771,-0.1366 -0.8771 -0.1366c -0.4044,-0.1366 -0.6933,-0.3834 -0.6933 -0.3834c -0.2889,-0.2468 -0.4569,-0.5830 -0.4569 -0.5830c -0.1681,-0.3361 -0.1681,-0.7353 -0.1681 -0.7353ZM 36.1029,375.1120 ZM 38.7185,375.2381 c -1.0189,-0.0000 -1.5861,-0.9034 -1.5861 -0.9034c -0.5672,-0.9034 -0.5672,-2.5945 -0.5672 -2.5945c 0.0000,-1.6912 0.5672,-2.5735 0.5672 -2.5735c 0.5672,-0.8824 1.5861,-0.8824 1.5861 -0.8824c 1.0084,0.0000 1.5756,0.8824 1.5756 0.8824c 0.5672,0.8824 0.5672,2.5735 0.5672 2.5735c 0.0000,1.6912 -0.5672,2.5945 -0.5672 2.5945c -0.5672,0.9034 -1.5756,0.9034 -1.5756 0.9034ZM 38.7185,375.2381 ZM 38.7185,374.5448 c 0.2941,0.0000 0.5305,-0.1628 0.5305 -0.1628c 0.2363,-0.1628 0.4097,-0.5042 0.4097 -0.5042c 0.1733,-0.3414 0.2679,-0.8718 0.2679 -0.8718c 0.0945,-0.5305 0.0945,-1.2658 0.0945 -1.2658c 0.0000,-0.7353 -0.0945,-1.2605 -0.0945 -1.2605c -0.0945,-0.5252 -0.2679,-0.8561 -0.2679 -0.8561c -0.1733,-0.3309 -0.4097,-0.4884 -0.4097 -0.4884c -0.2363,-0.1576 -0.5305,-0.1576 -0.5305 -0.1576c -0.2941,-0.0000 -0.5357,0.1576 -0.5357 0.1576c -0.2416,0.1576 -0.4149,0.4884 -0.4149 0.4884c -0.1733,0.3309 -0.2679,0.8561 -0.2679 0.8561c -0.0945,0.5252 -0.0945,1.2605 -0.0945 1.2605c 0.0000,1.4706 0.3624,2.1376 0.3624 2.1376c 0.3624,0.6670 0.9506,0.6670 0.9506 0.6670Z"/></g><g fill="rgb(0,0,0)" stroke="rgb(0,0,0)" stroke-linecap="butt" stroke-width="0.0" stroke-miterlimit="10.0" fill-opacity="1.0" stroke-opacity="0.0" stroke-linejoin="bevel"><path d="M 10.0000,206.7787 ZM 10.8298,206.0644 h 1.5336 v -4.9370 h -1.2185 v -0.5567 c 0.4622,-0.0840 0.8036,-0.2048 0.8036 -0.2048c 0.3414,-0.1208 0.6145,-0.2889 0.6145 -0.2889h 0.6618 v 5.9874 h 1.3866 v 0.7143 h -3.7815 v -0.7143 ZM 15.2206,206.7787 ZM 17.6891,203.5224 c 0.3256,0.0000 0.6985,-0.2048 0.6985 -0.2048c 0.3729,-0.2048 0.7090,-0.6880 0.7090 -0.6880c -0.0840,-0.9874 -0.4622,-1.4916 -0.4622 -1.4916c -0.3782,-0.5042 -1.0189,-0.5042 -1.0189 -0.5042c -0.2416,-0.0000 -0.4569,0.1050 -0.4569 0.1050c -0.2153,0.1050 -0.3729,0.2994 -0.3729 0.2994c -0.1576,0.1943 -0.2468,0.4674 -0.2468 0.4674c -0.0893,0.2731 -0.0893,0.5987 -0.0893 0.5987c 0.0000,0.6618 0.3046,1.0399 0.3046 1.0399c 0.3046,0.3782 0.9349,0.3782 0.9349 0.3782ZM 17.6891,203.5224 ZM 16.2395,205.6548 c 0.2101,0.2416 0.4989,0.3887 0.4989 0.3887c 0.2889,0.1471 0.6040,0.1471 0.6040 0.1471c 0.3571,0.0000 0.6723,-0.1471 0.6723 -0.1471c 0.3151,-0.1471 0.5567,-0.4884 0.5567 -0.4884c 0.2416,-0.3414 0.3887,-0.8876 0.3887 -0.8876c 0.1471,-0.5462 0.1576,-1.3550 0.1576 -1.3550c -0.3151,0.3992 -0.7353,0.6303 -0.7353 0.6303c -0.4202,0.2311 -0.8403,0.2311 -0.8403 0.2311c -0.8718,-0.0000 -1.3866,-0.5147 -1.3866 -0.5147c -0.5147,-0.5147 -0.5147,-1.5546 -0.5147 -1.5546c 0.0000,-0.4832 0.1576,-0.8771 0.1576 -0.8771c 0.1576,-0.3939 0.4254,-0.6775 0.4254 -0.6775c 0.2679,-0.2836 0.6303,-0.4412 0.6303 -0.4412c 0.3624,-0.1576 0.7616,-0.1576 0.7616 -0.1576c 0.4937,0.0000 0.9191,0.1996 0.9191 0.1996c 0.4254,0.1996 0.7353,0.6040 0.7353 0.6040c 0.3099,0.4044 0.4832,1.0084 0.4832 1.0084c 0.1733,0.6040 0.1733,1.4128 0.1733 1.4128c 0.0000,1.0084 -0.2101,1.7174 -0.2101 1.7174c -0.2101,0.7090 -0.5672,1.1555 -0.5672 1.1555c -0.3571,0.4464 -0.8141,0.6513 -0.8141 0.6513c -0.4569,0.2048 -0.9611,0.2048 -0.9611 0.2048c -0.5357,-0.0000 -0.9401,-0.1996 -0.9401 -0.1996c -0.4044,-0.1996 -0.6775,-0.5042 -0.6775 -0.5042ZM 20.4412,206.7787 ZM 22.9097,203.5224 c 0.3256,0.0000 0.6985,-0.2048 0.6985 -0.2048c 0.3729,-0.2048 0.7090,-0.6880 0.7090 -0.6880c -0.0840,-0.9874 -0.4622,-1.4916 -0.4622 -1.4916c -0.3782,-0.5042 -1.0189,-0.5042 -1.0189 -0.5042c -0.2416,-0.0000 -0.4569,0.1050 -0.4569 0.1050c -0.2153,0.1050 -0.3729,0.2994 -0.3729 0.2994c -0.1576,0.1943 -0.2468,0.4674 -0.2468 0.4674c -0.0893,0.2731 -0.0893,0.5987 -0.0893 0.5987c 0.0000,0.6618 0.3046,1.0399 0.3046 1.0399c 0.3046,0.3782 0.9349,0.3782 0.9349 0.3782ZM 22.9097,203.5224 ZM 21.4601,205.6548 c 0.2101,0.2416 0.4989,0.3887 0.4989 0.3887c 0.2889,0.1471 0.6040,0.1471 0.6040 0.1471c 0.3571,0.0000 0.6723,-0.1471 0.6723 -0.1471c 0.3151,-0.1471 0.5567,-0.4884 0.5567 -0.4884c 0.2416,-0.3414 0.3887,-0.8876 0.3887 -0.8876c 0.1471,-0.5462 0.1576,-1.3550 0.1576 -1.3550c -0.3151,0.3992 -0.7353,0.6303 -0.7353 0.6303c -0.4202,0.2311 -0.8403,0.2311 -0.8403 0.2311c -0.8718,-0.0000 -1.3866,-0.5147 -1.3866 -0.5147c -0.5147,-0.5147 -0.5147,-1.5546 -0.5147 -1.5546c 0.0000,-0.4832 0.1576,-0.8771 0.1576 -0.8771c 0.1576,-0.3939 0.4254,-0.6775 0.4254 -0.6775c 0.2679,-0.2836 0.6303,-0.4412 0.6303 -0.4412c 0.3624,-0.1576 0.7616,-0.1576 0.7616 -0.1576c 0.4937,0.0000 0.9191,0.1996 0.9191 0.1996c 0.4254,0.1996 0.7353,0.6040 0.7353 0.6040c 0.3099,0.4044 0.4832,1.0084 0.4832 1.0084c 0.1733,0.6040 0.1733,1.4128 0.1733 1.4128c 0.0000,1.0084 -0.2101,1.7174 -0.2101 1.7174c -0.2101,0.7090 -0.5672,1.1555 -0.5672 1.1555c -0.3571,0.4464 -0.8141,0.6513 -0.8141 0.6513c -0.4569,0.2048 -0.9611,0.2048 -0.9611 0.2048c -0.5357,-0.0000 -0.9401,-0.1996 -0.9401 -0.1996c -0.4044,-0.1996 -0.6775,-0.5042 -0.6775 -0.5042ZM 25.6618,206.7787 ZM 26.0819,206.2640 c 0.7563,-0.7563 1.3445,-1.3655 1.3445 -1.3655c 0.5882,-0.6092 0.9874,-1.1292 0.9874 -1.1292c 0.3992,-0.5200 0.6092,-0.9559 0.6092 -0.9559c 0.2101,-0.4359 0.2101,-0.8456 0.2101 -0.8456c 0.0000,-0.5777 -0.3151,-0.9454 -0.3151 -0.9454c -0.3151,-0.3676 -0.9559,-0.3676 -0.9559 -0.3676c -0.4202,-0.0000 -0.7773,0.2363 -0.7773 0.2363c -0.3571,0.2363 -0.6513,0.5725 -0.6513 0.5725l -0.4937,-0.4937 c 0.4202,-0.4622 0.8929,-0.7405 0.8929 -0.7405c 0.4727,-0.2784 1.1345,-0.2784 1.1345 -0.2784c 0.9349,0.0000 1.4706,0.5410 1.4706 0.5410c 0.5357,0.5410 0.5357,1.4338 0.5357 1.4338c 0.0000,0.4727 -0.2048,0.9506 -0.2048 0.9506c -0.2048,0.4779 -0.5672,0.9874 -0.5672 0.9874c -0.3624,0.5095 -0.8613,1.0609 -0.8613 1.0609c -0.4989,0.5515 -1.0977,1.1712 -1.0977 1.1712c 0.2731,-0.0210 0.5672,-0.0420 0.5672 -0.0420c 0.2941,-0.0210 0.5567,-0.0210 0.5567 -0.0210h 1.9433 v 0.7458 h -4.3277 v -0.5147 ZM 30.8824,206.7787 ZM 33.3508,203.5224 c 0.3256,0.0000 0.6985,-0.2048 0.6985 -0.2048c 0.3729,-0.2048 0.7090,-0.6880 0.7090 -0.6880c -0.0840,-0.9874 -0.4622,-1.4916 -0.4622 -1.4916c -0.3782,-0.5042 -1.0189,-0.5042 -1.0189 -0.5042c -0.2416,-0.0000 -0.4569,0.1050 -0.4569 0.1050c -0.2153,0.1050 -0.3729,0.2994 -0.3729 0.2994c -0.1576,0.1943 -0.2468,0.4674 -0.2468 0.4674c -0.0893,0.2731 -0.0893,0.5987 -0.0893 0.5987c 0.0000,0.6618 0.3046,1.0399 0.3046 1.0399c 0.3046,0.3782 0.9349,0.3782 0.9349 0.3782ZM 33.3508,203.5224 ZM 31.9013,205.6548 c 0.2101,0.2416 0.4989,0.3887 0.4989 0.3887c 0.2889,0.1471 0.6040,0.1471 0.6040 0.1471c 0.3571,0.0000 0.6723,-0.1471 0.6723 -0.1471c 0.3151,-0.1471 0.5567,-0.4884 0.5567 -0.4884c 0.2416,-0.3414 0.3887,-0.8876 0.3887 -0.8876c 0.1471,-0.5462 0.1576,-1.3550 0.1576 -1.3550c -0.3151,0.3992 -0.7353,0.6303 -0.7353 0.6303c -0.4202,0.2311 -0.8403,0.2311 -0.8403 0.2311c -0.8718,-0.0000 -1.3866,-0.5147 -1.3866 -0.5147c -0.5147,-0.5147 -0.5147,-1.5546 -0.5147 -1.5546c 0.0000,-0.4832 0.1576,-0.8771 0.1576 -0.8771c 0.1576,-0.3939 0.4254,-0.6775 0.4254 -0.6775c 0.2679,-0.2836 0.6303,-0.4412 0.6303 -0.4412c 0.3624,-0.1576 0.7616,-0.1576 0.7616 -0.1576c 0.4937,0.0000 0.9191,0.1996 0.9191 0.1996c 0.4254,0.1996 0.7353,0.6040 0.7353 0.6040c 0.3099,0.4044 0.4832,1.0084 0.4832 1.0084c 0.1733,0.6040 0.1733,1.4128 0.1733 1.4128c 0.0000,1.0084 -0.2101,1.7174 -0.2101 1.7174c -0.2101,0.7090 -0.5672,1.1555 -0.5672 1.1555c -0.3571,0.4464 -0.8141,0.6513 -0.8141 0.6513c -0.4569,0.2048 -0.9611,0.2048 -0.9611 0.2048c -0.5357,-0.0000 -0.9401,-0.1996 -0.9401 -0.1996c -0.4044,-0.1996 -0.6775,-0.5042 -0.6775 -0.5042ZM 36.1029,206.7787 ZM 38.7185,206.9048 c -1.0189,-0.0000 -1.5861,-0.9034 -1.5861 -0.9034c -0.5672,-0.9034 -0.5672,-2.5945 -0.5672 -2.5945c 0.0000,-1.6912 0.5672,-2.5735 0.5672 -2.5735c 0.5672,-0.8824 1.5861,-0.8824 1.5861 -0.8824c 1.0084,0.0000 1.5756,0.8824 1.5756 0.8824c 0.5672,0.8824 0.5672,2.5735 0.5672 2.5735c 0.0000,1.6912 -0.5672,2.5945 -0.5672 2.5945c -0.5672,0.9034 -1.5756,0.9034 -1.5756 0.9034ZM 38.7185,206.9048 ZM 38.7185,206.2115 c 0.2941,0.0000 0.5305,-0.1628 0.5305 -0.1628c 0.2363,-0.1628 0.4097,-0.5042 0.4097 -0.5042c 0.1733,-0.3414 0.2679,-0.8718 0.2679 -0.8718c 0.0945,-0.5305 0.0945,-1.2658 0.0945 -1.2658c 0.0000,-0.7353 -0.0945,-1.2605 -0.0945 -1.2605c -0.0945,-0.5252 -0.2679,-0.8561 -0.2679 -0.8561c -0.1733,-0.3309 -0.4097,-0.4884 -0.4097 -0.4884c -0.2363,-0.1576 -0.5305,-0.1576 -0.5305 -0.1576c -0.2941,-0.0000 -0.5357,0.1576 -0.5357 0.1576c -0.2416,0.1576 -0.4149,0.4884 -0.4149 0.4884c -0.1733,0.3309 -0.2679,0.8561 -0.2679 0.8561c -0.0945,0.5252 -0.0945,1.2605 -0.0945 1.2605c 0.0000,1.4706 0.3624,2.1376 0.3624 2.1376c 0.3624,0.6670 0.9506,0.6670 0.9506 0.6670Z"/></g><g fill="rgb(0,0,0)" stroke="rgb(0,0,0)" stroke-linecap="butt" stroke-width="0.0" stroke-miterlimit="10.0" fill-opacity="1.0" stroke-opacity="0.0" stroke-linejoin="bevel"><path d="M 10.0000,38.4454 ZM 10.8298,37.7311 h 1.5336 v -4.9370 h -1.2185 v -0.5567 c 0.4622,-0.0840 0.8036,-0.2048 0.8036 -0.2048c 0.3414,-0.1208 0.6145,-0.2889 0.6145 -0.2889h 0.6618 v 5.9874 h 1.3866 v 0.7143 h -3.7815 v -0.7143 ZM 15.2206,38.4454 ZM 17.6891,35.1891 c 0.3256,0.0000 0.6985,-0.2048 0.6985 -0.2048c 0.3729,-0.2048 0.7090,-0.6880 0.7090 -0.6880c -0.0840,-0.9874 -0.4622,-1.4916 -0.4622 -1.4916c -0.3782,-0.5042 -1.0189,-0.5042 -1.0189 -0.5042c -0.2416,-0.0000 -0.4569,0.1050 -0.4569 0.1050c -0.2153,0.1050 -0.3729,0.2994 -0.3729 0.2994c -0.1576,0.1943 -0.2468,0.4674 -0.2468 0.4674c -0.0893,0.2731 -0.0893,0.5987 -0.0893 0.5987c 0.0000,0.6618 0.3046,1.0399 0.3046 1.0399c 0.3046,0.3782 0.9349,0.3782 0.9349 0.3782ZM 17.6891,35.1891 ZM 16.2395,37.3214 c 0.2101,0.2416 0.4989,0.3887 0.4989 0.3887c 0.2889,0.1471 0.6040,0.1471 0.6040 0.1471c 0.3571,0.0000 0.6723,-0.1471 0.6723 -0.1471c 0.3151,-0.1471 0.5567,-0.4884 0.5567 -0.4884c 0.2416,-0.3414 0.3887,-0.8876 0.3887 -0.8876c 0.1471,-0.5462 0.1576,-1.3550 0.1576 -1.3550c -0.3151,0.3992 -0.7353,0.6303 -0.7353 0.6303c -0.4202,0.2311 -0.8403,0.2311 -0.8403 0.2311c -0.8718,-0.0000 -1.3866,-0.5147 -1.3866 -0.5147c -0.5147,-0.5147 -0.5147,-1.5546 -0.5147 -1.5546c 0.0000,-0.4832 0.1576,-0.8771 0.1576 -0.8771c 0.1576,-0.3939 0.4254,-0.6775 0.4254 -0.6775c 0.2679,-0.2836 0.6303,-0.4412 0.6303 -0.4412c 0.3624,-0.1576 0.7616,-0.1576 0.7616 -0.1576c 0.4937,0.0000 0.9191,0.1996 0.9191 0.1996c 0.4254,0.1996 0.7353,0.6040 0.7353 0.6040c 0.3099,0.4044 0.4832,1.0084 0.4832 1.0084c 0.1733,0.6040 0.1733,1.4128 0.1733 1.4128c 0.0000,1.0084 -0.2101,1.7174 -0.2101 1.7174c -0.2101,0.7090 -0.5672,1.1555 -0.5672 1.1555c -0.3571,0.4464 -0.8141,0.6513 -0.8141 0.6513c -0.4569,0.2048 -0.9611,0.2048 -0.9611 0.2048c -0.5357,-0.0000 -0.9401,-0.1996 -0.9401 -0.1996c -0.4044,-0.1996 -0.6775,-0.5042 -0.6775 -0.5042ZM 20.4412,38.4454 ZM 22.9097,35.1891 c 0.3256,0.0000 0.6985,-0.2048 0.6985 -0.2048c 0.3729,-0.2048 0.7090,-0.6880 0.7090 -0.6880c -0.0840,-0.9874 -0.4622,-1.4916 -0.4622 -1.4916c -0.3782,-0.5042 -1.0189,-0.5042 -1.0189 -0.5042c -0.2416,-0.0000 -0.4569,0.1050 -0.4569 0.1050c -0.2153,0.1050 -0.3729,0.2994 -0.3729 0.2994c -0.1576,0.1943 -0.2468,0.4674 -0.2468 0.4674c -0.0893,0.2731 -0.0893,0.5987 -0.0893 0.5987c 0.0000,0.6618 0.3046,1.0399 0.3046 1.0399c 0.3046,0.3782 0.9349,0.3782 0.9349 0.3782ZM 22.9097,35.1891 ZM 21.4601,37.3214 c 0.2101,0.2416 0.4989,0.3887 0.4989 0.3887c 0.2889,0.1471 0.6040,0.1471 0.6040 0.1471c 0.3571,0.0000 0.6723,-0.1471 0.6723 -0.1471c 0.3151,-0.1471 0.5567,-0.4884 0.5567 -0.4884c 0.2416,-0.3414 0.3887,-0.8876 0.3887 -0.8876c 0.1471,-0.5462 0.1576,-1.3550 0.1576 -1.3550c -0.3151,0.3992 -0.7353,0.6303 -0.7353 0.6303c -0.4202,0.2311 -0.8403,0.2311 -0.8403 0.2311c -0.8718,-0.0000 -1.3866,-0.5147 -1.3866 -0.5147c -0.5147,-0.5147 -0.5147,-1.5546 -0.5147 -1.5546c 0.0000,-0.4832 0.1576,-0.8771 0.1576 -0.8771c 0.1576,-0.3939 0.4254,-0.6775 0.4254 -0.6775c 0.2679,-0.2836 0.6303,-0.4412 0.6303 -0.4412c 0.3624,-0.1576 0.7616,-0.1576 0.7616 -0.1576c 0.4937,0.0000 0.9191,0.1996 0.9191 0.1996c 0.4254,0.1996 0.7353,0.6040 0.7353 0.6040c 0.3099,0.4044 0.4832,1.0084 0.4832 1.0084c 0.1733,0.6040 0.1733,1.4128 0.1733 1.4128c 0.0000,1.0084 -0.2101,1.7174 -0.2101 1.7174c -0.2101,0.7090 -0.5672,1.1555 -0.5672 1.1555c -0.3571,0.4464 -0.8141,0.6513 -0.8141 0.6513c -0.4569,0.2048 -0.9611,0.2048 -0.9611 0.2048c -0.5357,-0.0000 -0.9401,-0.1996 -0.9401 -0.1996c -0.4044,-0.1996 -0.6775,-0.5042 -0.6775 -0.5042ZM 25.6618,38.4454 ZM 26.3761,37.0588 c 0.3046,0.3151 0.7090,0.5567 0.7090 0.5567c 0.4044,0.2416 1.0032,0.2416 1.0032 0.2416c 0.6092,0.0000 0.9979,-0.3309 0.9979 -0.3309c 0.3887,-0.3309 0.3887,-0.8981 0.3887 -0.8981c 0.0000,-0.2941 -0.1103,-0.5410 -0.1103 -0.5410c -0.1103,-0.2468 -0.3624,-0.4254 -0.3624 -0.4254c -0.2521,-0.1786 -0.6618,-0.2731 -0.6618 -0.2731c -0.4097,-0.0945 -1.0084,-0.0945 -1.0084 -0.0945v -0.6618 c 0.5357,0.0000 0.8981,-0.0945 0.8981 -0.0945c 0.3624,-0.0945 0.5882,-0.2626 0.5882 -0.2626c 0.2258,-0.1681 0.3204,-0.3992 0.3204 -0.3992c 0.0945,-0.2311 0.0945,-0.4937 0.0945 -0.4937c 0.0000,-0.4937 -0.3099,-0.7773 -0.3099 -0.7773c -0.3099,-0.2836 -0.8456,-0.2836 -0.8456 -0.2836c -0.4202,-0.0000 -0.7721,0.1891 -0.7721 0.1891c -0.3519,0.1891 -0.6565,0.4937 -0.6565 0.4937l -0.4622,-0.5462 c 0.3887,-0.3676 0.8561,-0.6040 0.8561 -0.6040c 0.4674,-0.2363 1.0662,-0.2363 1.0662 -0.2363c 0.4412,0.0000 0.8088,0.1155 0.8088 0.1155c 0.3676,0.1155 0.6355,0.3309 0.6355 0.3309c 0.2679,0.2153 0.4149,0.5305 0.4149 0.5305c 0.1471,0.3151 0.1471,0.7248 0.1471 0.7248c 0.0000,0.6092 -0.3361,0.9979 -0.3361 0.9979c -0.3361,0.3887 -0.8824,0.5987 -0.8824 0.5987v 0.0420 c 0.3046,0.0735 0.5672,0.2153 0.5672 0.2153c 0.2626,0.1418 0.4622,0.3571 0.4622 0.3571c 0.1996,0.2153 0.3099,0.4989 0.3099 0.4989c 0.1103,0.2836 0.1103,0.6303 0.1103 0.6303c 0.0000,0.4412 -0.1733,0.7983 -0.1733 0.7983c -0.1733,0.3571 -0.4727,0.6040 -0.4727 0.6040c -0.2994,0.2468 -0.6985,0.3782 -0.6985 0.3782c -0.3992,0.1313 -0.8613,0.1313 -0.8613 0.1313c -0.3992,-0.0000 -0.7300,-0.0788 -0.7300 -0.0788c -0.3309,-0.0788 -0.6040,-0.2101 -0.6040 -0.2101c -0.2731,-0.1313 -0.4884,-0.2994 -0.4884 -0.2994c -0.2153,-0.1681 -0.3834,-0.3571 -0.3834 -0.3571ZM 30.8824,38.4454 ZM 33.4979,38.5714 c -1.0189,-0.0000 -1.5861,-0.9034 -1.5861 -0.9034c -0.5672,-0.9034 -0.5672,-2.5945 -0.5672 -2.5945c 0.0000,-1.6912 0.5672,-2.5735 0.5672 -2.5735c 0.5672,-0.8824 1.5861,-0.8824 1.5861 -0.8824c 1.0084,0.0000 1.5756,0.8824 1.5756 0.8824c 0.5672,0.8824 0.5672,2.5735 0.5672 2.5735c 0.0000,1.6912 -0.5672,2.5945 -0.5672 2.5945c -0.5672,0.9034 -1.5756,0.9034 -1.5756 0.9034ZM 33.4979,38.5714 ZM 33.4979,37.8782 c 0.2941,0.0000 0.5305,-0.1628 0.5305 -0.1628c 0.2363,-0.1628 0.4097,-0.5042 0.4097 -0.5042c 0.1733,-0.3414 0.2679,-0.8718 0.2679 -0.8718c 0.0945,-0.5305 0.0945,-1.2658 0.0945 -1.2658c 0.0000,-0.7353 -0.0945,-1.2605 -0.0945 -1.2605c -0.0945,-0.5252 -0.2679,-0.8561 -0.2679 -0.8561c -0.1733,-0.3309 -0.4097,-0.4884 -0.4097 -0.4884c -0.2363,-0.1576 -0.5305,-0.1576 -0.5305 -0.1576c -0.2941,-0.0000 -0.5357,0.1576 -0.5357 0.1576c -0.2416,0.1576 -0.4149,0.4884 -0.4149 0.4884c -0.1733,0.3309 -0.2679,0.8561 -0.2679 0.8561c -0.0945,0.5252 -0.0945,1.2605 -0.0945 1.2605c 0.0000,1.4706 0.3624,2.1376 0.3624 2.1376c 0.3624,0.6670 0.9506,0.6670 0.9506 0.6670ZM 36.1029,38.4454 ZM 38.7185,38.5714 c -1.0189,-0.0000 -1.5861,-0.9034 -1.5861 -0.9034c -0.5672,-0.9034 -0.5672,-2.5945 -0.5672 -2.5945c 0.0000,-1.6912 0.5672,-2.5735 0.5672 -2.5735c 0.5672,-0.8824 1.5861,-0.8824 1.5861 -0.8824c 1.0084,0.0000 1.5756,0.8824 1.5756 0.8824c 0.5672,0.8824 0.5672,2.5735 0.5672 2.5735c 0.0000,1.6912 -0.5672,2.5945 -0.5672 2.5945c -0.5672,0.9034 -1.5756,0.9034 -1.5756 0.9034ZM 38.7185,38.5714 ZM 38.7185,37.8782 c 0.2941,0.0000 0.5305,-0.1628 0.5305 -0.1628c 0.2363,-0.1628 0.4097,-0.5042 0.4097 -0.5042c 0.1733,-0.3414 0.2679,-0.8718 0.2679 -0.8718c 0.0945,-0.5305 0.0945,-1.2658 0.0945 -1.2658c 0.0000,-0.7353 -0.0945,-1.2605 -0.0945 -1.2605c -0.0945,-0.5252 -0.2679,-0.8561 -0.2679 -0.8561c -0.1733,-0.3309 -0.4097,-0.4884 -0.4097 -0.4884c -0.2363,-0.1576 -0.5305,-0.1576 -0.5305 -0.1576c -0.2941,-0.0000 -0.5357,0.1576 -0.5357 0.1576c -0.2416,0.1576 -0.4149,0.4884 -0.4149 0.4884c -0.1733,0.3309 -0.2679,0.8561 -0.2679 0.8561c -0.0945,0.5252 -0.0945,1.2605 -0.0945 1.2605c 0.0000,1.4706 0.3624,2.1376 0.3624 2.1376c 0.3624,0.6670 0.9506,0.6670 0.9506 0.6670Z"/></g><g fill="rgb(0,0,0)" stroke="rgb(0,0,0)" stroke-linecap="square" stroke-width="0.9999999999999997" stroke-miterlimit="10.0" fill-opacity="0.0" stroke-opacity="1.0" stroke-linejoin="miter"><path d="M 50.0315,540.0000 h 732.7836 "/></g><g fill="rgb(0,0,0)" stroke="rgb(0,0,0)" stroke-linecap="butt" stroke-width="0.9999999999999997" stroke-miterlimit="10.0" fill-opacity="0.0" stroke-opacity="1.0" stroke-linejoin="miter"><path d="M 50.0315,540.0000 v -2.0000 "/></g><g fill="rgb(0,0,0)" stroke="rgb(0,0,0)" stroke-linecap="butt" stroke-width="0.9999999999999997" stroke-miterlimit="10.0" fill-opacity="0.0" stroke-opacity="1.0" stroke-linejoin="miter"><path d="M 147.7360,540.0000 v -2.0000 "/></g><g fill="rgb(0,0,0)" stroke="rgb(0,0,0)" stroke-linecap="butt" stroke-width="0.9999999999999997" stroke-miterlimit="10.0" fill-opacity="0.0" stroke-opacity="1.0" stroke-linejoin="miter"><path d="M 245.4405,540.0000 v -2.0000 "/></g><g fill="rgb(0,0,0)" stroke="rgb(0,0,0)" stroke-linecap="butt" stroke-width="0.9999999999999997" stroke-miterlimit="10.0" fill-opacity="0.0" stroke-opacity="1.0" stroke-linejoin="miter"><path d="M 343.1450,540.0000 v -2.0000 "/></g><g fill="rgb(0,0,0)" stroke="rgb(0,0,0)" stroke-linecap="butt" stroke-width="0.9999999999999997" stroke-miterlimit="10.0" fill-opacity="0.0" stroke-opacity="1.0" stroke-linejoin="miter"><path d="M 440.8494,540.0000 v -2.0000 "/></g><g fill="rgb(0,0,0)" stroke="rgb(0,0,0)" stroke-linecap="butt" stroke-width="0.9999999999999997" stroke-miterlimit="10.0" fill-opacity="0.0" stroke-opacity="1.0" stroke-linejoin="miter"><path d="M 538.5539,540.0000 v -2.0000 "/></g><g fill="rgb(0,0,0)" stroke="rgb(0,0,0)" stroke-linecap="butt" stroke-width="0.9999999999999997" stroke-miterlimit="10.0" fill-opacity="0.0" stroke-opacity="1.0" stroke-linejoin="miter"><path d="M 636.2584,540.0000 v -2.0000 "/></g><g fill="rgb(0,0,0)" stroke="rgb(0,0,0)" stroke-linecap="butt" stroke-width="0.9999999999999997" stroke-miterlimit="10.0" fill-opacity="0.0" stroke-opacity="1.0" stroke-linejoin="miter"><path d="M 733.9629,540.0000 v -2.0000 "/></g><g fill="rgb(0,0,0)" stroke="rgb(0,0,0)" stroke-linecap="butt" stroke-width="0.9999999999999997" stroke-miterlimit="10.0" fill-opacity="0.0" stroke-opacity="1.0" stroke-linejoin="miter"><path d="M 831.6674,540.0000 v -2.0000 "/></g><g fill="rgb(0,0,0)" stroke="rgb(0,0,0)" stroke-linecap="butt" stroke-width="0.9999999999999997" stroke-miterlimit="10.0" fill-opacity="0.0" stroke-opacity="1.0" stroke-linejoin="miter"><path d="M 50.0315,540.0000 v -5.0000 "/></g><g fill="rgb(0,0,0)" stroke="rgb(0,0,0)" stroke-linecap="butt" stroke-width="0.9999999999999997" stroke-miterlimit="10.0" fill-opacity="0.0" stroke-opacity="1.0" stroke-linejoin="miter"><path d="M 294.2927,540.0000 v -5.0000 "/></g><g fill="rgb(0,0,0)" stroke="rgb(0,0,0)" stroke-linecap="butt" stroke-width="0.9999999999999997" stroke-miterlimit="10.0" fill-opacity="0.0" stroke-opacity="1.0" stroke-linejoin="miter"><path d="M 538.5539,540.0000 v -5.0000 "/></g><g fill="rgb(0,0,0)" stroke="rgb(0,0,0)" stroke-linecap="butt" stroke-width="0.9999999999999997" stroke-miterlimit="10.0" fill-opacity="0.0" stroke-opacity="1.0" stroke-linejoin="miter"><path d="M 782.8151,540.0000 v -5.0000 "/></g><g fill="rgb(0,0,0)" stroke="rgb(0,0,0)" stroke-linecap="butt" stroke-width="0.0" stroke-miterlimit="10.0" fill-opacity="1.0" stroke-opacity="0.0" stroke-linejoin="bevel"><path d="M 47.8834,560.0000 ZM 50.4989,560.1261 c -1.0189,-0.0000 -1.5861,-0.9034 -1.5861 -0.9034c -0.5672,-0.9034 -0.5672,-2.5945 -0.5672 -2.5945c 0.0000,-1.6912 0.5672,-2.5735 0.5672 -2.5735c 0.5672,-0.8824 1.5861,-0.8824 1.5861 -0.8824c 1.0084,0.0000 1.5756,0.8824 1.5756 0.8824c 0.5672,0.8824 0.5672,2.5735 0.5672 2.5735c 0.0000,1.6912 -0.5672,2.5945 -0.5672 2.5945c -0.5672,0.9034 -1.5756,0.9034 -1.5756 0.9034ZM 50.4989,560.1261 ZM 50.4989,559.4328 c 0.2941,0.0000 0.5305,-0.1628 0.5305 -0.1628c 0.2363,-0.1628 0.4097,-0.5042 0.4097 -0.5042c 0.1733,-0.3414 0.2679,-0.8718 0.2679 -0.8718c 0.0945,-0.5305 0.0945,-1.2658 0.0945 -1.2658c 0.0000,-0.7353 -0.0945,-1.2605 -0.0945 -1.2605c -0.0945,-0.5252 -0.2679,-0.8561 -0.2679 -0.8561c -0.1733,-0.3309 -0.4097,-0.4884 -0.4097 -0.4884c -0.2363,-0.1576 -0.5305,-0.1576 -0.5305 -0.1576c -0.2941,-0.0000 -0.5357,0.1576 -0.5357 0.1576c -0.2416,0.1576 -0.4149,0.4884 -0.4149 0.4884c -0.1733,0.3309 -0.2679,0.8561 -0.2679 0.8561c -0.0945,0.5252 -0.0945,1.2605 -0.0945 1.2605c 0.0000,1.4706 0.3624,2.1376 0.3624 2.1376c 0.3624,0.6670 0.9506,0.6670 0.9506 0.6670Z"/></g><g fill="rgb(0,0,0)" stroke="rgb(0,0,0)" stroke-linecap="butt" stroke-width="0.0" stroke-miterlimit="10.0" fill-opacity="1.0" stroke-opacity="0.0" stroke-linejoin="bevel"><path d="M 289.4345,560.0000 ZM 290.1173,558.6450 c 0.2941,0.3046 0.6985,0.5357 0.6985 0.5357c 0.4044,0.2311 0.9926,0.2311 0.9926 0.2311c 0.3046,0.0000 0.5725,-0.1103 0.5725 -0.1103c 0.2679,-0.1103 0.4674,-0.3099 0.4674 -0.3099c 0.1996,-0.1996 0.3151,-0.4832 0.3151 -0.4832c 0.1155,-0.2836 0.1155,-0.6303 0.1155 -0.6303c 0.0000,-0.6933 -0.3887,-1.0819 -0.3887 -1.0819c -0.3887,-0.3887 -1.0399,-0.3887 -1.0399 -0.3887c -0.3466,-0.0000 -0.5935,0.1050 -0.5935 0.1050c -0.2468,0.1050 -0.5515,0.3046 -0.5515 0.3046l -0.4622,-0.2941 l 0.2206,-3.2248 h 3.3508 v 0.7458 h -2.5945 l -0.1786,1.9853 c 0.2416,-0.1261 0.4832,-0.1996 0.4832 -0.1996c 0.2416,-0.0735 0.5462,-0.0735 0.5462 -0.0735c 0.4307,0.0000 0.8088,0.1261 0.8088 0.1261c 0.3782,0.1261 0.6618,0.3834 0.6618 0.3834c 0.2836,0.2574 0.4464,0.6513 0.4464 0.6513c 0.1628,0.3939 0.1628,0.9401 0.1628 0.9401c 0.0000,0.5462 -0.1891,0.9664 -0.1891 0.9664c -0.1891,0.4202 -0.5042,0.7090 -0.5042 0.7090c -0.3151,0.2889 -0.7195,0.4412 -0.7195 0.4412c -0.4044,0.1523 -0.8456,0.1523 -0.8456 0.1523c -0.3992,-0.0000 -0.7300,-0.0788 -0.7300 -0.0788c -0.3309,-0.0788 -0.5987,-0.2048 -0.5987 -0.2048c -0.2679,-0.1261 -0.4832,-0.2889 -0.4832 -0.2889c -0.2153,-0.1628 -0.3834,-0.3414 -0.3834 -0.3414ZM 294.6551,560.0000 ZM 297.2707,560.1261 c -1.0189,-0.0000 -1.5861,-0.9034 -1.5861 -0.9034c -0.5672,-0.9034 -0.5672,-2.5945 -0.5672 -2.5945c 0.0000,-1.6912 0.5672,-2.5735 0.5672 -2.5735c 0.5672,-0.8824 1.5861,-0.8824 1.5861 -0.8824c 1.0084,0.0000 1.5756,0.8824 1.5756 0.8824c 0.5672,0.8824 0.5672,2.5735 0.5672 2.5735c 0.0000,1.6912 -0.5672,2.5945 -0.5672 2.5945c -0.5672,0.9034 -1.5756,0.9034 -1.5756 0.9034ZM 297.2707,560.1261 ZM 297.2707,559.4328 c 0.2941,0.0000 0.5305,-0.1628 0.5305 -0.1628c 0.2363,-0.1628 0.4097,-0.5042 0.4097 -0.5042c 0.1733,-0.3414 0.2679,-0.8718 0.2679 -0.8718c 0.0945,-0.5305 0.0945,-1.2658 0.0945 -1.2658c 0.0000,-0.7353 -0.0945,-1.2605 -0.0945 -1.2605c -0.0945,-0.5252 -0.2679,-0.8561 -0.2679 -0.8561c -0.1733,-0.3309 -0.4097,-0.4884 -0.4097 -0.4884c -0.2363,-0.1576 -0.5305,-0.1576 -0.5305 -0.1576c -0.2941,-0.0000 -0.5357,0.1576 -0.5357 0.1576c -0.2416,0.1576 -0.4149,0.4884 -0.4149 0.4884c -0.1733,0.3309 -0.2679,0.8561 -0.2679 0.8561c -0.0945,0.5252 -0.0945,1.2605 -0.0945 1.2605c 0.0000,1.4706 0.3624,2.1376 0.3624 2.1376c 0.3624,0.6670 0.9506,0.6670 0.9506 0.6670Z"/></g><g fill="rgb(0,0,0)" stroke="rgb(0,0,0)" stroke-linecap="butt" stroke-width="0.0" stroke-miterlimit="10.0" fill-opacity="1.0" stroke-opacity="0.0" stroke-linejoin="bevel"><path d="M 531.3690,560.0000 ZM 532.1989,559.2857 h 1.5336 v -4.9370 h -1.2185 v -0.5567 c 0.4622,-0.0840 0.8036,-0.2048 0.8036 -0.2048c 0.3414,-0.1208 0.6145,-0.2889 0.6145 -0.2889h 0.6618 v 5.9874 h 1.3866 v 0.7143 h -3.7815 v -0.7143 ZM 536.5896,560.0000 ZM 539.2052,560.1261 c -1.0189,-0.0000 -1.5861,-0.9034 -1.5861 -0.9034c -0.5672,-0.9034 -0.5672,-2.5945 -0.5672 -2.5945c 0.0000,-1.6912 0.5672,-2.5735 0.5672 -2.5735c 0.5672,-0.8824 1.5861,-0.8824 1.5861 -0.8824c 1.0084,0.0000 1.5756,0.8824 1.5756 0.8824c 0.5672,0.8824 0.5672,2.5735 0.5672 2.5735c 0.0000,1.6912 -0.5672,2.5945 -0.5672 2.5945c -0.5672,0.9034 -1.5756,0.9034 -1.5756 0.9034ZM 539.2052,560.1261 ZM 539.2052,559.4328 c 0.2941,0.0000 0.5305,-0.1628 0.5305 -0.1628c 0.2363,-0.1628 0.4097,-0.5042 0.4097 -0.5042c 0.1733,-0.3414 0.2679,-0.8718 0.2679 -0.8718c 0.0945,-0.5305 0.0945,-1.2658 0.0945 -1.2658c 0.0000,-0.7353 -0.0945,-1.2605 -0.0945 -1.2605c -0.0945,-0.5252 -0.2679,-0.8561 -0.2679 -0.8561c -0.1733,-0.3309 -0.4097,-0.4884 -0.4097 -0.4884c -0.2363,-0.1576 -0.5305,-0.1576 -0.5305 -0.1576c -0.2941,-0.0000 -0.5357,0.1576 -0.5357 0.1576c -0.2416,0.1576 -0.4149,0.4884 -0.4149 0.4884c -0.1733,0.3309 -0.2679,0.8561 -0.2679 0.8561c -0.0945,0.5252 -0.0945,1.2605 -0.0945 1.2605c 0.0000,1.4706 0.3624,2.1376 0.3624 2.1376c 0.3624,0.6670 0.9506,0.6670 0.9506 0.6670ZM 541.8102,560.0000 ZM 544.4258,560.1261 c -1.0189,-0.0000 -1.5861,-0.9034 -1.5861 -0.9034c -0.5672,-0.9034 -0.5672,-2.5945 -0.5672 -2.5945c 0.0000,-1.6912 0.5672,-2.5735 0.5672 -2.5735c 0.5672,-0.8824 1.5861,-0.8824 1.5861 -0.8824c 1.0084,0.0000 1.5756,0.8824 1.5756 0.8824c 0.5672,0.8824 0.5672,2.5735 0.5672 2.5735c 0.0000,1.6912 -0.5672,2.5945 -0.5672 2.5945c -0.5672,0.9034 -1.5756,0.9034 -1.5756 0.9034ZM 544.4258,560.1261 ZM 544.4258,559.4328 c 0.2941,0.0000 0.5305,-0.1628 0.5305 -0.1628c 0.2363,-0.1628 0.4097,-0.5042 0.4097 -0.5042c 0.1733,-0.3414 0.2679,-0.8718 0.2679 -0.8718c 0.0945,-0.5305 0.0945,-1.2658 0.0945 -1.2658c 0.0000,-0.7353 -0.0945,-1.2605 -0.0945 -1.2605c -0.0945,-0.5252 -0.2679,-0.8561 -0.2679 -0.8561c -0.1733,-0.3309 -0.4097,-0.4884 -0.4097 -0.4884c -0.2363,-0.1576 -0.5305,-0.1576 -0.5305 -0.1576c -0.2941,-0.0000 -0.5357,0.1576 -0.5357 0.1576c -0.2416,0.1576 -0.4149,0.4884 -0.4149 0.4884c -0.1733,0.3309 -0.2679,0.8561 -0.2679 0.8561c -0.0945,0.5252 -0.0945,1.2605 -0.0945 1.2605c 0.0000,1.4706 0.3624,2.1376 0.3624 2.1376c 0.3624,0.6670 0.9506,0.6670 0.9506 0.6670Z"/></g><g fill="rgb(0,0,0)" stroke="rgb(0,0,0)" stroke-linecap="butt" stroke-width="0.0" stroke-miterlimit="10.0" fill-opacity="1.0" stroke-opacity="0.0" stroke-linejoin="bevel"><path d="M 775.6303,560.0000 ZM 776.4601,559.2857 h 1.5336 v -4.9370 h -1.2185 v -0.5567 c 0.4622,-0.0840 0.8036,-0.2048 0.8036 -0.2048c 0.3414,-0.1208 0.6145,-0.2889 0.6145 -0.2889h 0.6618 v 5.9874 h 1.3866 v 0.7143 h -3.7815 v -0.7143 ZM 780.8508,560.0000 ZM 781.5336,558.6450 c 0.2941,0.3046 0.6985,0.5357 0.6985 0.5357c 0.4044,0.2311 0.9926,0.2311 0.9926 0.2311c 0.3046,0.0000 0.5725,-0.1103 0.5725 -0.1103c 0.2679,-0.1103 0.4674,-0.3099 0.4674 -0.3099c 0.1996,-0.1996 0.3151,-0.4832 0.3151 -0.4832c 0.1155,-0.2836 0.1155,-0.6303 0.1155 -0.6303c 0.0000,-0.6933 -0.3887,-1.0819 -0.3887 -1.0819c -0.3887,-0.3887 -1.0399,-0.3887 -1.0399 -0.3887c -0.3466,-0.0000 -0.5935,0.1050 -0.5935 0.1050c -0.2468,0.1050 -0.5515,0.3046 -0.5515 0.3046l -0.4622,-0.2941 l 0.2206,-3.2248 h 3.3508 v 0.7458 h -2.5945 l -0.1786,1.9853 c 0.2416,-0.1261 0.4832,-0.1996 0.4832 -0.1996c 0.2416,-0.0735 0.5462,-0.0735 0.5462 -0.0735c 0.4307,0.0000 0.8088,0.1261 0.8088 0.1261c 0.3782,0.1261 0.6618,0.3834 0.6618 0.3834c 0.2836,0.2574 0.4464,0.6513 0.4464 0.6513c 0.1628,0.3939 0.1628,0.9401 0.1628 0.9401c 0.0000,0.5462 -0.1891,0.9664 -0.1891 0.9664c -0.1891,0.4202 -0.5042,0.7090 -0.5042 0.7090c -0.3151,0.2889 -0.7195,0.4412 -0.7195 0.4412c -0.4044,0.1523 -0.8456,0.1523 -0.8456 0.1523c -0.3992,-0.0000 -0.7300,-0.0788 -0.7300 -0.0788c -0.3309,-0.0788 -0.5987,-0.2048 -0.5987 -0.2048c -0.2679,-0.1261 -0.4832,-0.2889 -0.4832 -0.2889c -0.2153,-0.1628 -0.3834,-0.3414 -0.3834 -0.3414ZM 786.0714,560.0000 ZM 788.6870,560.1261 c -1.0189,-0.0000 -1.5861,-0.9034 -1.5861 -0.9034c -0.5672,-0.9034 -0.5672,-2.5945 -0.5672 -2.5945c 0.0000,-1.6912 0.5672,-2.5735 0.5672 -2.5735c 0.5672,-0.8824 1.5861,-0.8824 1.5861 -0.8824c 1.0084,0.0000 1.5756,0.8824 1.5756 0.8824c 0.5672,0.8824 0.5672,2.5735 0.5672 2.5735c 0.0000,1.6912 -0.5672,2.5945 -0.5672 2.5945c -0.5672,0.9034 -1.5756,0.9034 -1.5756 0.9034ZM 788.6870,560.1261 ZM 788.6870,559.4328 c 0.2941,0.0000 0.5305,-0.1628 0.5305 -0.1628c 0.2363,-0.1628 0.4097,-0.5042 0.4097 -0.5042c 0.1733,-0.3414 0.2679,-0.8718 0.2679 -0.8718c 0.0945,-0.5305 0.0945,-1.2658 0.0945 -1.2658c 0.0000,-0.7353 -0.0945,-1.2605 -0.0945 -1.2605c -0.0945,-0.5252 -0.2679,-0.8561 -0.2679 -0.8561c -0.1733,-0.3309 -0.4097,-0.4884 -0.4097 -0.4884c -0.2363,-0.1576 -0.5305,-0.1576 -0.5305 -0.1576c -0.2941,-0.0000 -0.5357,0.1576 -0.5357 0.1576c -0.2416,0.1576 -0.4149,0.4884 -0.4149 0.4884c -0.1733,0.3309 -0.2679,0.8561 -0.2679 0.8561c -0.0945,0.5252 -0.0945,1.2605 -0.0945 1.2605c 0.0000,1.4706 0.3624,2.1376 0.3624 2.1376c 0.3624,0.6670 0.9506,0.6670 0.9506 0.6670Z"/></g><g fill="rgb(0,0,0)" stroke="rgb(0,0,0)" stroke-linecap="butt" stroke-width="0.0" stroke-miterlimit="10.0" fill-opacity="1.0" stroke-opacity="0.0" stroke-linejoin="bevel"><path d="M 381.4758,566.6071 ZM 381.6019,561.5021 h 0.8929 l 0.9664,2.8992 c 0.1155,0.3782 0.2363,0.7563 0.2363 0.7563c 0.1208,0.3782 0.2363,0.7458 0.2363 0.7458h 0.0420 c 0.1155,-0.3676 0.2311,-0.7458 0.2311 -0.7458l 0.2311,-0.7563 l 0.9664,-2.8992 h 0.8508 l -1.8067,5.1050 h -1.0084 ZM 386.1712,566.6071 ZM 386.7805,565.2836 c 0.0000,-0.8403 0.7511,-1.2868 0.7511 -1.2868c 0.7511,-0.4464 2.3897,-0.6250 2.3897 -0.6250c 0.0000,-0.2416 -0.0473,-0.4727 -0.0473 -0.4727c -0.0473,-0.2311 -0.1681,-0.4097 -0.1681 -0.4097c -0.1208,-0.1786 -0.3204,-0.2889 -0.3204 -0.2889c -0.1996,-0.1103 -0.5147,-0.1103 -0.5147 -0.1103c -0.4517,-0.0000 -0.8351,0.1681 -0.8351 0.1681c -0.3834,0.1681 -0.6880,0.3782 -0.6880 0.3782l -0.3466,-0.5987 c 0.3571,-0.2311 0.8718,-0.4464 0.8718 -0.4464c 0.5147,-0.2153 1.1345,-0.2153 1.1345 -0.2153c 0.9349,0.0000 1.3550,0.5725 1.3550 0.5725c 0.4202,0.5725 0.4202,1.5284 0.4202 1.5284v 3.1303 h -0.7143 l -0.0735,-0.6092 h -0.0210 c -0.3676,0.3046 -0.7931,0.5200 -0.7931 0.5200c -0.4254,0.2153 -0.8981,0.2153 -0.8981 0.2153c -0.6513,-0.0000 -1.0767,-0.3782 -1.0767 -0.3782c -0.4254,-0.3782 -0.4254,-1.0714 -0.4254 -1.0714ZM 386.7805,565.2836 ZM 387.6313,565.2206 c 0.0000,0.4412 0.2574,0.6303 0.2574 0.6303c 0.2574,0.1891 0.6355,0.1891 0.6355 0.1891c 0.3676,0.0000 0.6985,-0.1733 0.6985 -0.1733c 0.3309,-0.1733 0.6985,-0.5095 0.6985 -0.5095v -1.4181 c -0.6408,0.0840 -1.0819,0.1996 -1.0819 0.1996c -0.4412,0.1155 -0.7090,0.2731 -0.7090 0.2731c -0.2679,0.1576 -0.3834,0.3624 -0.3834 0.3624c -0.1155,0.2048 -0.1155,0.4464 -0.1155 0.4464ZM 391.5494,566.6071 ZM 392.4107,559.1282 h 0.8613 v 6.5126 c 0.0000,0.2101 0.0735,0.2941 0.0735 0.2941c 0.0735,0.0840 0.1681,0.0840 0.1681 0.0840h 0.0788 c 0.0000,0.0000 0.1103,-0.0210 0.1103 -0.0210l 0.1155,0.6513 c -0.0840,0.0420 -0.1996,0.0630 -0.1996 0.0630c -0.1155,0.0210 -0.2941,0.0210 -0.2941 0.0210c -0.4937,-0.0000 -0.7038,-0.2941 -0.7038 -0.2941c -0.2101,-0.2941 -0.2101,-0.8613 -0.2101 -0.8613v -6.4496 ZM 394.2279,566.6071 ZM 395.5305,560.4517 c -0.2521,-0.0000 -0.4254,-0.1576 -0.4254 -0.1576c -0.1733,-0.1576 -0.1733,-0.3992 -0.1733 -0.3992c 0.0000,-0.2521 0.1733,-0.4044 0.1733 -0.4044c 0.1733,-0.1523 0.4254,-0.1523 0.4254 -0.1523c 0.2521,0.0000 0.4254,0.1523 0.4254 0.1523c 0.1733,0.1523 0.1733,0.4044 0.1733 0.4044c 0.0000,0.2416 -0.1733,0.3992 -0.1733 0.3992c -0.1733,0.1576 -0.4254,0.1576 -0.4254 0.1576ZM 395.5305,560.4517 ZM 395.0893,561.5021 h 0.8613 v 5.1050 h -0.8613 v -5.1050 ZM 396.8120,566.6071 ZM 397.3057,564.0651 c 0.0000,-0.6197 0.1838,-1.1187 0.1838 -1.1187c 0.1838,-0.4989 0.4884,-0.8456 0.4884 -0.8456c 0.3046,-0.3466 0.7038,-0.5357 0.7038 -0.5357c 0.3992,-0.1891 0.8403,-0.1891 0.8403 -0.1891c 0.4412,0.0000 0.7668,0.1576 0.7668 0.1576c 0.3256,0.1576 0.6618,0.4307 0.6618 0.4307l -0.0420,-0.8718 v -1.9643 h 0.8718 v 7.4790 h -0.7143 l -0.0735,-0.5987 h -0.0315 c -0.3046,0.2941 -0.6985,0.5095 -0.6985 0.5095c -0.3939,0.2153 -0.8456,0.2153 -0.8456 0.2153c -0.9664,-0.0000 -1.5389,-0.6933 -1.5389 -0.6933c -0.5725,-0.6933 -0.5725,-1.9748 -0.5725 -1.9748ZM 397.3057,564.0651 ZM 398.1985,564.0546 c 0.0000,0.9244 0.3676,1.4391 0.3676 1.4391c 0.3676,0.5147 1.0399,0.5147 1.0399 0.5147c 0.3571,0.0000 0.6723,-0.1733 0.6723 -0.1733c 0.3151,-0.1733 0.6303,-0.5305 0.6303 -0.5305v -2.6681 c -0.3256,-0.2941 -0.6250,-0.4149 -0.6250 -0.4149c -0.2994,-0.1208 -0.6145,-0.1208 -0.6145 -0.1208c -0.3046,-0.0000 -0.5725,0.1418 -0.5725 0.1418c -0.2679,0.1418 -0.4674,0.3992 -0.4674 0.3992c -0.1996,0.2574 -0.3151,0.6145 -0.3151 0.6145c -0.1155,0.3571 -0.1155,0.7983 -0.1155 0.7983ZM 402.6418,566.6071 ZM 403.2511,565.2836 c 0.0000,-0.8403 0.7511,-1.2868 0.7511 -1.2868c 0.7511,-0.4464 2.3897,-0.6250 2.3897 -0.6250c 0.0000,-0.2416 -0.0473,-0.4727 -0.0473 -0.4727c -0.0473,-0.2311 -0.1681,-0.4097 -0.1681 -0.4097c -0.1208,-0.1786 -0.3204,-0.2889 -0.3204 -0.2889c -0.1996,-0.1103 -0.5147,-0.1103 -0.5147 -0.1103c -0.4517,-0.0000 -0.8351,0.1681 -0.8351 0.1681c -0.3834,0.1681 -0.6880,0.3782 -0.6880 0.3782l -0.3466,-0.5987 c 0.3571,-0.2311 0.8718,-0.4464 0.8718 -0.4464c 0.5147,-0.2153 1.1345,-0.2153 1.1345 -0.2153c 0.9349,0.0000 1.3550,0.5725 1.3550 0.5725c 0.4202,0.5725 0.4202,1.5284 0.4202 1.5284v 3.1303 h -0.7143 l -0.0735,-0.6092 h -0.0210 c -0.3676,0.3046 -0.7931,0.5200 -0.7931 0.5200c -0.4254,0.2153 -0.8981,0.2153 -0.8981 0.2153c -0.6513,-0.0000 -1.0767,-0.3782 -1.0767 -0.3782c -0.4254,-0.3782 -0.4254,-1.0714 -0.4254 -1.0714ZM 403.2511,565.2836 ZM 404.1019,565.2206 c 0.0000,0.4412 0.2574,0.6303 0.2574 0.6303c 0.2574,0.1891 0.6355,0.1891 0.6355 0.1891c 0.3676,0.0000 0.6985,-0.1733 0.6985 -0.1733c 0.3309,-0.1733 0.6985,-0.5095 0.6985 -0.5095v -1.4181 c -0.6408,0.0840 -1.0819,0.1996 -1.0819 0.1996c -0.4412,0.1155 -0.7090,0.2731 -0.7090 0.2731c -0.2679,0.1576 -0.3834,0.3624 -0.3834 0.3624c -0.1155,0.2048 -0.1155,0.4464 -0.1155 0.4464ZM 408.0200,566.6071 ZM 409.0284,562.2059 h -0.7563 v -0.6513 l 0.7983,-0.0525 l 0.1050,-1.4286 h 0.7248 v 1.4286 h 1.3761 v 0.7038 h -1.3761 v 2.8361 c 0.0000,0.4727 0.1733,0.7300 0.1733 0.7300c 0.1733,0.2574 0.6145,0.2574 0.6145 0.2574c 0.1366,0.0000 0.2941,-0.0420 0.2941 -0.0420c 0.1576,-0.0420 0.2836,-0.0945 0.2836 -0.0945l 0.1681,0.6513 c -0.2101,0.0735 -0.4569,0.1313 -0.4569 0.1313c -0.2468,0.0578 -0.4884,0.0578 -0.4884 0.0578c -0.4097,-0.0000 -0.6880,-0.1261 -0.6880 -0.1261c -0.2784,-0.1261 -0.4517,-0.3466 -0.4517 -0.3466c -0.1733,-0.2206 -0.2468,-0.5357 -0.2468 -0.5357c -0.0735,-0.3151 -0.0735,-0.6933 -0.0735 -0.6933v -2.8256 ZM 411.4653,566.6071 ZM 411.9485,564.0651 c 0.0000,-0.6408 0.1943,-1.1397 0.1943 -1.1397c 0.1943,-0.4989 0.5200,-0.8456 0.5200 -0.8456c 0.3256,-0.3466 0.7511,-0.5252 0.7511 -0.5252c 0.4254,-0.1786 0.8981,-0.1786 0.8981 -0.1786c 0.4727,0.0000 0.8981,0.1786 0.8981 0.1786c 0.4254,0.1786 0.7511,0.5252 0.7511 0.5252c 0.3256,0.3466 0.5200,0.8456 0.5200 0.8456c 0.1943,0.4989 0.1943,1.1397 0.1943 1.1397c 0.0000,0.6303 -0.1943,1.1292 -0.1943 1.1292c -0.1943,0.4989 -0.5200,0.8403 -0.5200 0.8403c -0.3256,0.3414 -0.7511,0.5200 -0.7511 0.5200c -0.4254,0.1786 -0.8981,0.1786 -0.8981 0.1786c -0.4727,-0.0000 -0.8981,-0.1786 -0.8981 -0.1786c -0.4254,-0.1786 -0.7511,-0.5200 -0.7511 -0.5200c -0.3256,-0.3414 -0.5200,-0.8403 -0.5200 -0.8403c -0.1943,-0.4989 -0.1943,-1.1292 -0.1943 -1.1292ZM 411.9485,564.0651 ZM 412.8414,564.0651 c 0.0000,0.4412 0.1050,0.7983 0.1050 0.7983c 0.1050,0.3571 0.2994,0.6145 0.2994 0.6145c 0.1943,0.2574 0.4674,0.3992 0.4674 0.3992c 0.2731,0.1418 0.5987,0.1418 0.5987 0.1418c 0.3256,0.0000 0.5987,-0.1418 0.5987 -0.1418c 0.2731,-0.1418 0.4674,-0.3992 0.4674 -0.3992c 0.1943,-0.2574 0.2994,-0.6145 0.2994 -0.6145c 0.1050,-0.3571 0.1050,-0.7983 0.1050 -0.7983c 0.0000,-0.4412 -0.1050,-0.8036 -0.1050 -0.8036c -0.1050,-0.3624 -0.2994,-0.6250 -0.2994 -0.6250c -0.1943,-0.2626 -0.4674,-0.4044 -0.4674 -0.4044c -0.2731,-0.1418 -0.5987,-0.1418 -0.5987 -0.1418c -0.3256,-0.0000 -0.5987,0.1418 -0.5987 0.1418c -0.2731,0.1418 -0.4674,0.4044 -0.4674 0.4044c -0.1943,0.2626 -0.2994,0.6250 -0.2994 0.6250c -0.1050,0.3624 -0.1050,0.8036 -0.1050 0.8036ZM 417.1586,566.6071 ZM 418.0200,561.5021 h 0.7143 l 0.0735,0.9244 h 0.0315 c 0.2626,-0.4832 0.6355,-0.7668 0.6355 -0.7668c 0.3729,-0.2836 0.8141,-0.2836 0.8141 -0.2836c 0.3046,0.0000 0.5462,0.1050 0.5462 0.1050l -0.1681,0.7563 c -0.1261,-0.0420 -0.2311,-0.0630 -0.2311 -0.0630c -0.1050,-0.0210 -0.2626,-0.0210 -0.2626 -0.0210c -0.3256,-0.0000 -0.6775,0.2626 -0.6775 0.2626c -0.3519,0.2626 -0.6145,0.9139 -0.6145 0.9139v 3.2773 h -0.8613 v -5.1050 ZM 420.6985,566.6071 ZM 421.4233,565.4517 c 0.3361,0.2731 0.6880,0.4412 0.6880 0.4412c 0.3519,0.1681 0.8141,0.1681 0.8141 0.1681c 0.5042,0.0000 0.7563,-0.2311 0.7563 -0.2311c 0.2521,-0.2311 0.2521,-0.5672 0.2521 -0.5672c 0.0000,-0.1996 -0.1050,-0.3466 -0.1050 -0.3466c -0.1050,-0.1471 -0.2679,-0.2574 -0.2679 -0.2574c -0.1628,-0.1103 -0.3729,-0.1943 -0.3729 -0.1943l -0.4202,-0.1681 c -0.2731,-0.0945 -0.5462,-0.2153 -0.5462 -0.2153c -0.2731,-0.1208 -0.4884,-0.2941 -0.4884 -0.2941c -0.2153,-0.1733 -0.3519,-0.4044 -0.3519 -0.4044c -0.1366,-0.2311 -0.1366,-0.5567 -0.1366 -0.5567c 0.0000,-0.3046 0.1208,-0.5725 0.1208 -0.5725c 0.1208,-0.2679 0.3466,-0.4622 0.3466 -0.4622c 0.2258,-0.1943 0.5515,-0.3046 0.5515 -0.3046c 0.3256,-0.1103 0.7353,-0.1103 0.7353 -0.1103c 0.4832,0.0000 0.8876,0.1681 0.8876 0.1681c 0.4044,0.1681 0.6985,0.4097 0.6985 0.4097l -0.4097,0.5462 c -0.2626,-0.1996 -0.5462,-0.3256 -0.5462 -0.3256c -0.2836,-0.1261 -0.6197,-0.1261 -0.6197 -0.1261c -0.4832,-0.0000 -0.7090,0.2206 -0.7090 0.2206c -0.2258,0.2206 -0.2258,0.5147 -0.2258 0.5147c 0.0000,0.1786 0.0945,0.3099 0.0945 0.3099c 0.0945,0.1313 0.2521,0.2311 0.2521 0.2311c 0.1576,0.0998 0.3624,0.1786 0.3624 0.1786c 0.2048,0.0788 0.4254,0.1628 0.4254 0.1628c 0.2731,0.1050 0.5515,0.2206 0.5515 0.2206c 0.2784,0.1155 0.4989,0.2889 0.4989 0.2889c 0.2206,0.1733 0.3624,0.4254 0.3624 0.4254c 0.1418,0.2521 0.1418,0.6092 0.1418 0.6092c 0.0000,0.3151 -0.1208,0.5882 -0.1208 0.5882c -0.1208,0.2731 -0.3571,0.4832 -0.3571 0.4832c -0.2363,0.2101 -0.5882,0.3309 -0.5882 0.3309c -0.3519,0.1208 -0.8036,0.1208 -0.8036 0.1208c -0.5462,-0.0000 -1.0399,-0.1996 -1.0399 -0.1996c -0.4937,-0.1996 -0.8613,-0.5042 -0.8613 -0.5042ZM 427.2216,566.6071 ZM 429.4695,568.4559 c -0.6513,-1.0504 -1.0189,-2.2164 -1.0189 -2.2164c -0.3676,-1.1660 -0.3676,-2.5525 -0.3676 -2.5525c 0.0000,-1.3866 0.3676,-2.5473 0.3676 -2.5473c 0.3676,-1.1607 1.0189,-2.2216 1.0189 -2.2216l 0.5357,0.2521 c -0.6092,1.0084 -0.9086,2.1586 -0.9086 2.1586c -0.2994,1.1502 -0.2994,2.3582 -0.2994 2.3582c 0.0000,1.2080 0.2994,2.3582 0.2994 2.3582c 0.2994,1.1502 0.9086,2.1586 0.9086 2.1586l -0.5357,0.2521 h 0.0000 ZM 430.4044,566.6071 ZM 431.2658,561.5021 h 0.7143 l 0.0735,0.7353 h 0.0315 c 0.3361,-0.3676 0.7300,-0.6145 0.7300 -0.6145c 0.3939,-0.2468 0.8561,-0.2468 0.8561 -0.2468c 0.5882,0.0000 0.9191,0.2574 0.9191 0.2574c 0.3309,0.2574 0.4884,0.7195 0.4884 0.7195c 0.3992,-0.4412 0.8036,-0.7090 0.8036 -0.7090c 0.4044,-0.2679 0.8771,-0.2679 0.8771 -0.2679c 0.7878,0.0000 1.1712,0.5042 1.1712 0.5042c 0.3834,0.5042 0.3834,1.4916 0.3834 1.4916v 3.2353 h -0.8613 v -3.1197 c 0.0000,-0.7248 -0.2311,-1.0452 -0.2311 -1.0452c -0.2311,-0.3204 -0.7143,-0.3204 -0.7143 -0.3204c -0.5777,-0.0000 -1.2815,0.7878 -1.2815 0.7878v 3.6975 h -0.8613 v -3.1197 c 0.0000,-0.7248 -0.2311,-1.0452 -0.2311 -1.0452c -0.2311,-0.3204 -0.7248,-0.3204 -0.7248 -0.3204c -0.5777,-0.0000 -1.2815,0.7878 -1.2815 0.7878v 3.6975 h -0.8613 v -5.1050 ZM 439.1124,566.6071 ZM 439.7216,565.2836 c 0.0000,-0.8403 0.7511,-1.2868 0.7511 -1.2868c 0.7511,-0.4464 2.3897,-0.6250 2.3897 -0.6250c 0.0000,-0.2416 -0.0473,-0.4727 -0.0473 -0.4727c -0.0473,-0.2311 -0.1681,-0.4097 -0.1681 -0.4097c -0.1208,-0.1786 -0.3204,-0.2889 -0.3204 -0.2889c -0.1996,-0.1103 -0.5147,-0.1103 -0.5147 -0.1103c -0.4517,-0.0000 -0.8351,0.1681 -0.8351 0.1681c -0.3834,0.1681 -0.6880,0.3782 -0.6880 0.3782l -0.3466,-0.5987 c 0.3571,-0.2311 0.8718,-0.4464 0.8718 -0.4464c 0.5147,-0.2153 1.1345,-0.2153 1.1345 -0.2153c 0.9349,0.0000 1.3550,0.5725 1.3550 0.5725c 0.4202,0.5725 0.4202,1.5284 0.4202 1.5284v 3.1303 h -0.7143 l -0.0735,-0.6092 h -0.0210 c -0.3676,0.3046 -0.7931,0.5200 -0.7931 0.5200c -0.4254,0.2153 -0.8981,0.2153 -0.8981 0.2153c -0.6513,-0.0000 -1.0767,-0.3782 -1.0767 -0.3782c -0.4254,-0.3782 -0.4254,-1.0714 -0.4254 -1.0714ZM 439.7216,565.2836 ZM 440.5725,565.2206 c 0.0000,0.4412 0.2574,0.6303 0.2574 0.6303c 0.2574,0.1891 0.6355,0.1891 0.6355 0.1891c 0.3676,0.0000 0.6985,-0.1733 0.6985 -0.1733c 0.3309,-0.1733 0.6985,-0.5095 0.6985 -0.5095v -1.4181 c -0.6408,0.0840 -1.0819,0.1996 -1.0819 0.1996c -0.4412,0.1155 -0.7090,0.2731 -0.7090 0.2731c -0.2679,0.1576 -0.3834,0.3624 -0.3834 0.3624c -0.1155,0.2048 -0.1155,0.4464 -0.1155 0.4464ZM 444.4905,566.6071 ZM 446.3078,563.9391 l -1.5441,-2.4370 h 0.9349 l 0.6828,1.1239 c 0.1155,0.2101 0.2416,0.4254 0.2416 0.4254c 0.1261,0.2153 0.2626,0.4254 0.2626 0.4254h 0.0420 c 0.1155,-0.2101 0.2311,-0.4254 0.2311 -0.4254c 0.1155,-0.2153 0.2311,-0.4254 0.2311 -0.4254l 0.6197,-1.1239 h 0.9034 l -1.5441,2.5315 l 1.6597,2.5735 h -0.9349 l -0.7458,-1.1870 l -0.2731,-0.4622 c 0.0000,0.0000 -0.2836,-0.4517 -0.2836 -0.4517h -0.0420 c -0.1366,0.2206 -0.2626,0.4464 -0.2626 0.4464c -0.1261,0.2258 -0.2521,0.4674 -0.2521 0.4674l -0.6933,1.1870 h -0.9034 ZM 449.1754,566.6071 ZM 449.5746,568.2038 c 0.6092,-1.0084 0.9086,-2.1586 0.9086 -2.1586c 0.2994,-1.1502 0.2994,-2.3582 0.2994 -2.3582c 0.0000,-1.2080 -0.2994,-2.3582 -0.2994 -2.3582c -0.2994,-1.1502 -0.9086,-2.1586 -0.9086 -2.1586l 0.5357,-0.2521 c 0.6513,1.0609 1.0189,2.2216 1.0189 2.2216c 0.3676,1.1607 0.3676,2.5473 0.3676 2.5473c 0.0000,1.3866 -0.3676,2.5525 -0.3676 2.5525c -0.3676,1.1660 -1.0189,2.2164 -1.0189 2.2164l -0.5357,-0.2521 h 0.0000 Z"/></g><g fill="rgb(0,0,255)" stroke="rgb(0,0,0)" stroke-linecap="butt" stroke-width="0.0" stroke-miterlimit="10.0" fill-opacity="1.0" stroke-opacity="0.0" stroke-linejoin="bevel"><path d="M 12.0000,585.0000 c 0.0000,1.1046 -0.8954,2.0000 -2.0000 2.0000c -1.1046,0.0000 -2.0000,-0.8954 -2.0000 -2.0000c -0.0000,-1.1046 0.8954,-2.0000 2.0000 -2.0000c 1.1046,-0.0000 2.0000,0.8954 2.0000 2.0000Z"/></g><g fill="rgb(0,0,0)" stroke="rgb(0,0,0)" stroke-linecap="butt" stroke-width="0.0" stroke-miterlimit="10.0" fill-opacity="0.0" stroke-opacity="0.0" stroke-linejoin="miter"><path d="M 12.0000,585.0000 c 0.0000,1.1046 -0.8954,2.0000 -2.0000 2.0000c -1.1046,0.0000 -2.0000,-0.8954 -2.0000 -2.0000c -0.0000,-1.1046 0.8954,-2.0000 2.0000 -2.0000c 1.1046,-0.0000 2.0000,0.8954 2.0000 2.0000"/></g><g fill="rgb(0,0,255)" stroke="rgb(0,0,0)" stroke-linecap="butt" stroke-width="0.0" stroke-miterlimit="10.0" fill-opacity="1.0" stroke-opacity="0.0" stroke-linejoin="bevel"><path d="M 22.0000,585.0000 c 0.0000,1.1046 -0.8954,2.0000 -2.0000 2.0000c -1.1046,0.0000 -2.0000,-0.8954 -2.0000 -2.0000c -0.0000,-1.1046 0.8954,-2.0000 2.0000 -2.0000c 1.1046,-0.0000 2.0000,0.8954 2.0000 2.0000Z"/></g><g fill="rgb(0,0,0)" stroke="rgb(0,0,0)" stroke-linecap="butt" stroke-width="0.0" stroke-miterlimit="10.0" fill-opacity="0.0" stroke-opacity="0.0" stroke-linejoin="miter"><path d="M 22.0000,585.0000 c 0.0000,1.1046 -0.8954,2.0000 -2.0000 2.0000c -1.1046,0.0000 -2.0000,-0.8954 -2.0000 -2.0000c -0.0000,-1.1046 0.8954,-2.0000 2.0000 -2.0000c 1.1046,-0.0000 2.0000,0.8954 2.0000 2.0000"/></g><g fill="rgb(0,0,255)" stroke="rgb(0,0,0)" stroke-linecap="butt" stroke-width="0.0" stroke-miterlimit="10.0" fill-opacity="1.0" stroke-opacity="0.0" stroke-linejoin="bevel"><path d="M 32.0000,585.0000 c 0.0000,1.1046 -0.8954,2.0000 -2.0000 2.0000c -1.1046,0.0000 -2.0000,-0.8954 -2.0000 -2.0000c -0.0000,-1.1046 0.8954,-2.0000 2.0000 -2.0000c 1.1046,-0.0000 2.0000,0.8954 2.0000 2.0000Z"/></g><g fill="rgb(0,0,0)" stroke="rgb(0,0,0)" stroke-linecap="butt" stroke-width="0.0" stroke-miterlimit="10.0" fill-opacity="0.0" stroke-opacity="0.0" stroke-linejoin="miter"><path d="M 32.0000,585.0000 c 0.0000,1.1046 -0.8954,2.0000 -2.0000 2.0000c -1.1046,0.0000 -2.0000,-0.8954 -2.0000 -2.0000c -0.0000,-1.1046 0.8954,-2.0000 2.0000 -2.0000c 1.1046,-0.0000 2.0000,0.8954 2.0000 2.0000"/></g><g fill="rgb(0,0,0)" stroke="rgb(0,0,0)" stroke-linecap="butt" stroke-width="0.0" stroke-miterlimit="10.0" fill-opacity="1.0" stroke-opacity="0.0" stroke-linejoin="bevel"><path d="M 35.0735,586.6071 ZM 35.5567,584.0651 c 0.0000,-0.6408 0.1996,-1.1397 0.1996 -1.1397c 0.1996,-0.4989 0.5357,-0.8456 0.5357 -0.8456c 0.3361,-0.3466 0.7826,-0.5252 0.7826 -0.5252c 0.4464,-0.1786 0.9401,-0.1786 0.9401 -0.1786c 0.5042,0.0000 0.8666,0.1838 0.8666 0.1838c 0.3624,0.1838 0.6250,0.4254 0.6250 0.4254l -0.4307,0.5567 c -0.2311,-0.1996 -0.4779,-0.3256 -0.4779 -0.3256c -0.2468,-0.1261 -0.5515,-0.1261 -0.5515 -0.1261c -0.3466,-0.0000 -0.6408,0.1418 -0.6408 0.1418c -0.2941,0.1418 -0.5042,0.4044 -0.5042 0.4044c -0.2101,0.2626 -0.3309,0.6250 -0.3309 0.6250c -0.1208,0.3624 -0.1208,0.8036 -0.1208 0.8036c 0.0000,0.4412 0.1155,0.7983 0.1155 0.7983c 0.1155,0.3571 0.3204,0.6145 0.3204 0.6145c 0.2048,0.2574 0.4989,0.3992 0.4989 0.3992c 0.2941,0.1418 0.6408,0.1418 0.6408 0.1418c 0.3676,0.0000 0.6670,-0.1523 0.6670 -0.1523c 0.2994,-0.1523 0.5305,-0.3624 0.5305 -0.3624l 0.3887,0.5672 c -0.3466,0.3046 -0.7721,0.4832 -0.7721 0.4832c -0.4254,0.1786 -0.8876,0.1786 -0.8876 0.1786c -0.5042,-0.0000 -0.9454,-0.1786 -0.9454 -0.1786c -0.4412,-0.1786 -0.7616,-0.5200 -0.7616 -0.5200c -0.3204,-0.3414 -0.5042,-0.8403 -0.5042 -0.8403c -0.1838,-0.4989 -0.1838,-1.1292 -0.1838 -1.1292ZM 39.6429,586.6071 ZM 40.1261,584.0651 c 0.0000,-0.6408 0.1943,-1.1397 0.1943 -1.1397c 0.1943,-0.4989 0.5200,-0.8456 0.5200 -0.8456c 0.3256,-0.3466 0.7511,-0.5252 0.7511 -0.5252c 0.4254,-0.1786 0.8981,-0.1786 0.8981 -0.1786c 0.4727,0.0000 0.8981,0.1786 0.8981 0.1786c 0.4254,0.1786 0.7511,0.5252 0.7511 0.5252c 0.3256,0.3466 0.5200,0.8456 0.5200 0.8456c 0.1943,0.4989 0.1943,1.1397 0.1943 1.1397c 0.0000,0.6303 -0.1943,1.1292 -0.1943 1.1292c -0.1943,0.4989 -0.5200,0.8403 -0.5200 0.8403c -0.3256,0.3414 -0.7511,0.5200 -0.7511 0.5200c -0.4254,0.1786 -0.8981,0.1786 -0.8981 0.1786c -0.4727,-0.0000 -0.8981,-0.1786 -0.8981 -0.1786c -0.4254,-0.1786 -0.7511,-0.5200 -0.7511 -0.5200c -0.3256,-0.3414 -0.5200,-0.8403 -0.5200 -0.8403c -0.1943,-0.4989 -0.1943,-1.1292 -0.1943 -1.1292ZM 40.1261,584.0651 ZM 41.0189,584.0651 c 0.0000,0.4412 0.1050,0.7983 0.1050 0.7983c 0.1050,0.3571 0.2994,0.6145 0.2994 0.6145c 0.1943,0.2574 0.4674,0.3992 0.4674 0.3992c 0.2731,0.1418 0.5987,0.1418 0.5987 0.1418c 0.3256,0.0000 0.5987,-0.1418 0.5987 -0.1418c 0.2731,-0.1418 0.4674,-0.3992 0.4674 -0.3992c 0.1943,-0.2574 0.2994,-0.6145 0.2994 -0.6145c 0.1050,-0.3571 0.1050,-0.7983 0.1050 -0.7983c 0.0000,-0.4412 -0.1050,-0.8036 -0.1050 -0.8036c -0.1050,-0.3624 -0.2994,-0.6250 -0.2994 -0.6250c -0.1943,-0.2626 -0.4674,-0.4044 -0.4674 -0.4044c -0.2731,-0.1418 -0.5987,-0.1418 -0.5987 -0.1418c -0.3256,-0.0000 -0.5987,0.1418 -0.5987 0.1418c -0.2731,0.1418 -0.4674,0.4044 -0.4674 0.4044c -0.1943,0.2626 -0.2994,0.6250 -0.2994 0.6250c -0.1050,0.3624 -0.1050,0.8036 -0.1050 0.8036ZM 45.3361,586.6071 ZM 45.8193,584.0651 c 0.0000,-0.6303 0.1943,-1.1292 0.1943 -1.1292c 0.1943,-0.4989 0.5147,-0.8456 0.5147 -0.8456c 0.3204,-0.3466 0.7300,-0.5305 0.7300 -0.5305c 0.4097,-0.1838 0.8508,-0.1838 0.8508 -0.1838c 0.4832,0.0000 0.8666,0.1681 0.8666 0.1681c 0.3834,0.1681 0.6408,0.4832 0.6408 0.4832c 0.2574,0.3151 0.3939,0.7563 0.3939 0.7563c 0.1366,0.4412 0.1366,0.9874 0.1366 0.9874c 0.0000,0.2836 -0.0315,0.4727 -0.0315 0.4727h -3.4454 c 0.0525,0.8298 0.5095,1.3130 0.5095 1.3130c 0.4569,0.4832 1.1922,0.4832 1.1922 0.4832c 0.3676,0.0000 0.6775,-0.1103 0.6775 -0.1103c 0.3099,-0.1103 0.5935,-0.2889 0.5935 -0.2889l 0.3046,0.5672 c -0.3361,0.2101 -0.7458,0.3676 -0.7458 0.3676c -0.4097,0.1576 -0.9349,0.1576 -0.9349 0.1576c -0.5147,-0.0000 -0.9611,-0.1838 -0.9611 -0.1838c -0.4464,-0.1838 -0.7773,-0.5252 -0.7773 -0.5252c -0.3309,-0.3414 -0.5200,-0.8351 -0.5200 -0.8351c -0.1891,-0.4937 -0.1891,-1.1239 -0.1891 -1.1239ZM 45.8193,584.0651 ZM 49.3908,583.6765 c 0.0000,-0.7878 -0.3309,-1.2027 -0.3309 -1.2027c -0.3309,-0.4149 -0.9296,-0.4149 -0.9296 -0.4149c -0.2731,-0.0000 -0.5200,0.1103 -0.5200 0.1103c -0.2468,0.1103 -0.4464,0.3151 -0.4464 0.3151c -0.1996,0.2048 -0.3309,0.5042 -0.3309 0.5042c -0.1313,0.2994 -0.1733,0.6880 -0.1733 0.6880h 2.7311 ZM 50.5462,586.6071 ZM 56.7017,579.8319 c -0.3046,-0.1261 -0.5777,-0.1261 -0.5777 -0.1261c -0.7248,-0.0000 -0.7248,0.9874 -0.7248 0.9874v 0.8088 h 1.0819 v 0.7038 h -1.0819 v 4.4013 h -0.8613 v -4.4013 h -2.1218 v 4.4013 h -0.8613 v -4.4013 h -0.6933 v -0.6513 l 0.6933,-0.0525 v -0.6723 c 0.0000,-0.7983 0.3939,-1.2605 0.3939 -1.2605c 0.3939,-0.4622 1.1922,-0.4622 1.1922 -0.4622c 0.2521,0.0000 0.4989,0.0525 0.4989 0.0525c 0.2468,0.0525 0.4359,0.1366 0.4359 0.1366l -0.1786,0.6513 c -0.3151,-0.1366 -0.6828,-0.1366 -0.6828 -0.1366c -0.3782,-0.0000 -0.5882,0.2679 -0.5882 0.2679c -0.2101,0.2679 -0.2101,0.7721 -0.2101 0.7721v 0.6513 h 2.1218 v -0.8088 c 0.0000,-0.7878 0.3624,-1.2395 0.3624 -1.2395c 0.3624,-0.4517 1.1292,-0.4517 1.1292 -0.4517c 0.2416,0.0000 0.4569,0.0473 0.4569 0.0473c 0.2153,0.0473 0.3939,0.1208 0.3939 0.1208ZM 56.5756,586.6071 ZM 57.8782,580.4517 c -0.2521,-0.0000 -0.4254,-0.1576 -0.4254 -0.1576c -0.1733,-0.1576 -0.1733,-0.3992 -0.1733 -0.3992c 0.0000,-0.2521 0.1733,-0.4044 0.1733 -0.4044c 0.1733,-0.1523 0.4254,-0.1523 0.4254 -0.1523c 0.2521,0.0000 0.4254,0.1523 0.4254 0.1523c 0.1733,0.1523 0.1733,0.4044 0.1733 0.4044c 0.0000,0.2416 -0.1733,0.3992 -0.1733 0.3992c -0.1733,0.1576 -0.4254,0.1576 -0.4254 0.1576ZM 57.8782,580.4517 ZM 57.4370,581.5021 h 0.8613 v 5.1050 h -0.8613 v -5.1050 ZM 59.1597,586.6071 ZM 59.6429,584.0651 c 0.0000,-0.6408 0.1996,-1.1397 0.1996 -1.1397c 0.1996,-0.4989 0.5357,-0.8456 0.5357 -0.8456c 0.3361,-0.3466 0.7826,-0.5252 0.7826 -0.5252c 0.4464,-0.1786 0.9401,-0.1786 0.9401 -0.1786c 0.5042,0.0000 0.8666,0.1838 0.8666 0.1838c 0.3624,0.1838 0.6250,0.4254 0.6250 0.4254l -0.4307,0.5567 c -0.2311,-0.1996 -0.4779,-0.3256 -0.4779 -0.3256c -0.2468,-0.1261 -0.5515,-0.1261 -0.5515 -0.1261c -0.3466,-0.0000 -0.6408,0.1418 -0.6408 0.1418c -0.2941,0.1418 -0.5042,0.4044 -0.5042 0.4044c -0.2101,0.2626 -0.3309,0.6250 -0.3309 0.6250c -0.1208,0.3624 -0.1208,0.8036 -0.1208 0.8036c 0.0000,0.4412 0.1155,0.7983 0.1155 0.7983c 0.1155,0.3571 0.3204,0.6145 0.3204 0.6145c 0.2048,0.2574 0.4989,0.3992 0.4989 0.3992c 0.2941,0.1418 0.6408,0.1418 0.6408 0.1418c 0.3676,0.0000 0.6670,-0.1523 0.6670 -0.1523c 0.2994,-0.1523 0.5305,-0.3624 0.5305 -0.3624l 0.3887,0.5672 c -0.3466,0.3046 -0.7721,0.4832 -0.7721 0.4832c -0.4254,0.1786 -0.8876,0.1786 -0.8876 0.1786c -0.5042,-0.0000 -0.9454,-0.1786 -0.9454 -0.1786c -0.4412,-0.1786 -0.7616,-0.5200 -0.7616 -0.5200c -0.3204,-0.3414 -0.5042,-0.8403 -0.5042 -0.8403c -0.1838,-0.4989 -0.1838,-1.1292 -0.1838 -1.1292ZM 63.9496,586.6071 ZM 65.2521,580.4517 c -0.2521,-0.0000 -0.4254,-0.1576 -0.4254 -0.1576c -0.1733,-0.1576 -0.1733,-0.3992 -0.1733 -0.3992c 0.0000,-0.2521 0.1733,-0.4044 0.1733 -0.4044c 0.1733,-0.1523 0.4254,-0.1523 0.4254 -0.1523c 0.2521,0.0000 0.4254,0.1523 0.4254 0.1523c 0.1733,0.1523 0.1733,0.4044 0.1733 0.4044c 0.0000,0.2416 -0.1733,0.3992 -0.1733 0.3992c -0.1733,0.1576 -0.4254,0.1576 -0.4254 0.1576ZM 65.2521,580.4517 ZM 64.8109,581.5021 h 0.8613 v 5.1050 h -0.8613 v -5.1050 ZM 66.5336,586.6071 ZM 67.0168,584.0651 c 0.0000,-0.6303 0.1943,-1.1292 0.1943 -1.1292c 0.1943,-0.4989 0.5147,-0.8456 0.5147 -0.8456c 0.3204,-0.3466 0.7300,-0.5305 0.7300 -0.5305c 0.4097,-0.1838 0.8508,-0.1838 0.8508 -0.1838c 0.4832,0.0000 0.8666,0.1681 0.8666 0.1681c 0.3834,0.1681 0.6408,0.4832 0.6408 0.4832c 0.2574,0.3151 0.3939,0.7563 0.3939 0.7563c 0.1366,0.4412 0.1366,0.9874 0.1366 0.9874c 0.0000,0.2836 -0.0315,0.4727 -0.0315 0.4727h -3.4454 c 0.0525,0.8298 0.5095,1.3130 0.5095 1.3130c 0.4569,0.4832 1.1922,0.4832 1.1922 0.4832c 0.3676,0.0000 0.6775,-0.1103 0.6775 -0.1103c 0.3099,-0.1103 0.5935,-0.2889 0.5935 -0.2889l 0.3046,0.5672 c -0.3361,0.2101 -0.7458,0.3676 -0.7458 0.3676c -0.4097,0.1576 -0.9349,0.1576 -0.9349 0.1576c -0.5147,-0.0000 -0.9611,-0.1838 -0.9611 -0.1838c -0.4464,-0.1838 -0.7773,-0.5252 -0.7773 -0.5252c -0.3309,-0.3414 -0.5200,-0.8351 -0.5200 -0.8351c -0.1891,-0.4937 -0.1891,-1.1239 -0.1891 -1.1239ZM 67.0168,584.0651 ZM 70.5882,583.6765 c 0.0000,-0.7878 -0.3309,-1.2027 -0.3309 -1.2027c -0.3309,-0.4149 -0.9296,-0.4149 -0.9296 -0.4149c -0.2731,-0.0000 -0.5200,0.1103 -0.5200 0.1103c -0.2468,0.1103 -0.4464,0.3151 -0.4464 0.3151c -0.1996,0.2048 -0.3309,0.5042 -0.3309 0.5042c -0.1313,0.2994 -0.1733,0.6880 -0.1733 0.6880h 2.7311 ZM 71.7437,586.6071 ZM 72.6050,581.5021 h 0.7143 l 0.0735,0.7353 h 0.0315 c 0.3676,-0.3676 0.7721,-0.6145 0.7721 -0.6145c 0.4044,-0.2468 0.9401,-0.2468 0.9401 -0.2468c 0.8088,0.0000 1.1817,0.5042 1.1817 0.5042c 0.3729,0.5042 0.3729,1.4916 0.3729 1.4916v 3.2353 h -0.8613 v -3.1197 c 0.0000,-0.7248 -0.2311,-1.0452 -0.2311 -1.0452c -0.2311,-0.3204 -0.7353,-0.3204 -0.7353 -0.3204c -0.3992,-0.0000 -0.7038,0.1996 -0.7038 0.1996c -0.3046,0.1996 -0.6933,0.5882 -0.6933 0.5882v 3.6975 h -0.8613 v -5.1050 ZM 77.4895,586.6071 ZM 78.4979,582.2059 h -0.7563 v -0.6513 l 0.7983,-0.0525 l 0.1050,-1.4286 h 0.7248 v 1.4286 h 1.3761 v 0.7038 h -1.3761 v 2.8361 c 0.0000,0.4727 0.1733,0.7300 0.1733 0.7300c 0.1733,0.2574 0.6145,0.2574 0.6145 0.2574c 0.1366,0.0000 0.2941,-0.0420 0.2941 -0.0420c 0.1576,-0.0420 0.2836,-0.0945 0.2836 -0.0945l 0.1681,0.6513 c -0.2101,0.0735 -0.4569,0.1313 -0.4569 0.1313c -0.2468,0.0578 -0.4884,0.0578 -0.4884 0.0578c -0.4097,-0.0000 -0.6880,-0.1261 -0.6880 -0.1261c -0.2784,-0.1261 -0.4517,-0.3466 -0.4517 -0.3466c -0.1733,-0.2206 -0.2468,-0.5357 -0.2468 -0.5357c -0.0735,-0.3151 -0.0735,-0.6933 -0.0735 -0.6933v -2.8256 ZM 81.0399,586.6071 ZM 81.7647,585.4517 c 0.3361,0.2731 0.6880,0.4412 0.6880 0.4412c 0.3519,0.1681 0.8141,0.1681 0.8141 0.1681c 0.5042,0.0000 0.7563,-0.2311 0.7563 -0.2311c 0.2521,-0.2311 0.2521,-0.5672 0.2521 -0.5672c 0.0000,-0.1996 -0.1050,-0.3466 -0.1050 -0.3466c -0.1050,-0.1471 -0.2679,-0.2574 -0.2679 -0.2574c -0.1628,-0.1103 -0.3729,-0.1943 -0.3729 -0.1943l -0.4202,-0.1681 c -0.2731,-0.0945 -0.5462,-0.2153 -0.5462 -0.2153c -0.2731,-0.1208 -0.4884,-0.2941 -0.4884 -0.2941c -0.2153,-0.1733 -0.3519,-0.4044 -0.3519 -0.4044c -0.1366,-0.2311 -0.1366,-0.5567 -0.1366 -0.5567c 0.0000,-0.3046 0.1208,-0.5725 0.1208 -0.5725c 0.1208,-0.2679 0.3466,-0.4622 0.3466 -0.4622c 0.2258,-0.1943 0.5515,-0.3046 0.5515 -0.3046c 0.3256,-0.1103 0.7353,-0.1103 0.7353 -0.1103c 0.4832,0.0000 0.8876,0.1681 0.8876 0.1681c 0.4044,0.1681 0.6985,0.4097 0.6985 0.4097l -0.4097,0.5462 c -0.2626,-0.1996 -0.5462,-0.3256 -0.5462 -0.3256c -0.2836,-0.1261 -0.6197,-0.1261 -0.6197 -0.1261c -0.4832,-0.0000 -0.7090,0.2206 -0.7090 0.2206c -0.2258,0.2206 -0.2258,0.5147 -0.2258 0.5147c 0.0000,0.1786 0.0945,0.3099 0.0945 0.3099c 0.0945,0.1313 0.2521,0.2311 0.2521 0.2311c 0.1576,0.0998 0.3624,0.1786 0.3624 0.1786c 0.2048,0.0788 0.4254,0.1628 0.4254 0.1628c 0.2731,0.1050 0.5515,0.2206 0.5515 0.2206c 0.2784,0.1155 0.4989,0.2889 0.4989 0.2889c 0.2206,0.1733 0.3624,0.4254 0.3624 0.4254c 0.1418,0.2521 0.1418,0.6092 0.1418 0.6092c 0.0000,0.3151 -0.1208,0.5882 -0.1208 0.5882c -0.1208,0.2731 -0.3571,0.4832 -0.3571 0.4832c -0.2363,0.2101 -0.5882,0.3309 -0.5882 0.3309c -0.3519,0.1208 -0.8036,0.1208 -0.8036 0.1208c -0.5462,-0.0000 -1.0399,-0.1996 -1.0399 -0.1996c -0.4937,-0.1996 -0.8613,-0.5042 -0.8613 -0.5042Z"/></g></svg>